<?xml version="1.0" encoding="utf-8"?>
<!-- Generator: Adobe Illustrator 27.4.1, SVG Export Plug-In . SVG Version: 6.00 Build 0)  -->
<svg version="1.1" id="b" xmlns="http://www.w3.org/2000/svg" xmlns:xlink="http://www.w3.org/1999/xlink" x="0px" y="0px"
	 viewBox="0 0 200 200" style="enable-background:new 0 0 200 200;" xml:space="preserve">
<style type="text/css">
	.st0{fill:#333333;stroke:#333333;stroke-width:0.5;stroke-miterlimit:10;}
	.st1{fill:#327BB8;stroke:#FFFFFF;stroke-width:0.45;stroke-miterlimit:10;}
	.st2{fill:#FFFFFF;}
	.st3{fill:#FFFFFF;stroke:#FFFFFF;stroke-width:0.45;stroke-miterlimit:10;}
</style>
<rect width="200" height="200"/>
<path class="st0" d="M9.8,130.7l28.1-27.6L9.8,75.2V54.5l49.8,48.6L9.8,151.6C9.8,151.6,9.8,130.7,9.8,130.7z"/>
<path class="st0" d="M75.4,130.7l28.1-27.6L75.4,75.2V54.5l49.8,48.6l-49.8,48.6V130.7z"/>
<path class="st0" d="M141.1,130.7l28.1-27.6l-28.1-27.8V54.5l49.8,48.6L141,151.6L141.1,130.7L141.1,130.7z"/>
<g id="c">
	<g id="d">
		<g id="e">
			<path class="st1" d="M135.1,82.3c-0.4-1.8-2.6-0.9-3.7-1.3c-1.2-0.4-2.8-0.8-4.4-0.5c-1,0.2-1.9,0.6-2.6,1
				c-0.1,0-0.1,0.1-0.1,0.1s-1.2,0.9-1.7,1.1c-0.6,0.2-2.9,0.2-3,0.2c-1.3-0.1-2.9-0.5-4.7-1.4c-6.1-3.3-11.6-3.3-14.1-1.5
				c-4.2,3.2-8.2,14.6-8.2,14.6l-8.6-16.1h-5.7l11.8,21.3v10.5h4.6V99.7c0,0,5.1-9.8,7.8-13c2.4-2.9,3.9-2.2,9.1-0.5
				c1.5,0.5,2.8,0.8,3.9,1v23h4.6v-23c1.5-1.1,3.9-0.4,5.2-0.2c0.8,0.1,2,0.3,3.1,0.1C131.6,86.4,135.5,84.1,135.1,82.3L135.1,82.3z
				"/>
			<path class="st2" d="M129,84.5c1.5,0.9,3.3,0.2,4.9-0.2c0.1,0,0.3,0,0.3,0.2c0,0.1,0,0.3-0.2,0.3c-0.9,0.2-1.7,0.3-2.6,0.4
				c-0.9,0.1-1.8-0.1-2.5-0.6C128.8,84.5,128.9,84.4,129,84.5L129,84.5L129,84.5z"/>
			<path class="st2" d="M128.6,81.5c0.1,0.2,0,0.4-0.4,0.5s-0.6-0.1-0.6-0.3s0-0.4,0.4-0.5S128.6,81.3,128.6,81.5L128.6,81.5z"/>
		</g>
		<path class="st1" d="M65,78.4c3.5,0,6.3,0.9,8.3,2.6c2,1.8,3,4.2,3,7.4c0,1.3-0.2,2.5-0.6,3.7s-1,2.3-1.8,3.4s-1.9,1.8-3.3,2.4
			s-3,0.9-5,0.9h-4.7v11.4h-4.6V78.4H65L65,78.4z M65.6,94.3c1.2,0,2.2-0.2,3-0.6c0.8-0.4,1.4-0.9,1.9-1.5c0.4-0.6,0.8-1.2,1-1.9
			s0.3-1.2,0.3-1.8c0-0.8-0.2-1.7-0.5-2.6c-0.3-0.9-1-1.6-1.8-2.2c-0.9-0.6-2.1-0.9-3.6-0.9h-4.9v11.5L65.6,94.3L65.6,94.3z"/>
	</g>
	<path class="st3" d="M129.8,106.8l10.5-24.9h0.2l10.5,24.9h-4l-2.4-6h-9l-2.5,6H129.8L129.8,106.8z M136.9,97.8h6.6l-3.2-8.2
		C140.3,89.6,136.9,97.8,136.9,97.8z"/>
	<path class="st3" d="M155.4,82.9h3.4v20.6h12v3.3h-15.4C155.4,106.8,155.4,82.9,155.4,82.9z"/>
	<path class="st3" d="M175.9,82.9h15.6v3.3h-12.2v6.9h10.9v3.3h-10.9v7H192v3.3h-16.1L175.9,82.9L175.9,82.9z"/>
	<path class="st3" d="M27.8,105c-0.4,0.2-0.9,0.5-1.6,0.9c-0.7,0.3-1.5,0.6-2.4,0.9c-0.9,0.2-2,0.3-3,0.3c-1.9,0-3.5-0.3-5-1
		s-2.7-1.5-3.8-2.6s-1.8-2.4-2.4-3.8s-0.8-3-0.8-4.6c0-1.8,0.3-3.4,0.9-5c0.6-1.5,1.4-2.8,2.4-3.9s2.3-2,3.7-2.6
		c1.4-0.6,3-0.9,4.7-0.9c1.5,0,2.8,0.2,4,0.6c1.2,0.4,2.2,0.8,3,1.3l-1.4,3.2c-0.6-0.4-1.4-0.9-2.4-1.2c-0.9-0.4-2-0.6-3.1-0.6
		c-1.5,0-2.9,0.4-4.1,1.2s-2.3,1.9-3,3.2c-0.8,1.3-1.1,2.8-1.1,4.5s0.4,3.2,1,4.6c0.7,1.3,1.7,2.4,3,3.2c1.3,0.8,2.8,1.2,4.5,1.2
		c1.2,0,2.3-0.2,3.2-0.6c0.9-0.4,1.7-0.8,2.3-1.3L27.8,105L27.8,105z"/>
	<path class="st3" d="M30.6,106.8l10.5-24.9h0.2l10.5,24.9h-4l-2.4-6h-9l-2.5,6C34,106.8,30.6,106.8,30.6,106.8z M37.7,97.8h6.6
		l-3.2-8.2C41.1,89.6,37.7,97.8,37.7,97.8z"/>
</g>
</svg>
