<?xml version="1.0" standalone="no"?>
<!DOCTYPE svg PUBLIC "-//W3C//DTD SVG 20010904//EN"
 "http://www.w3.org/TR/2001/REC-SVG-20010904/DTD/svg10.dtd">
<svg version="1.0" xmlns="http://www.w3.org/2000/svg"
 width="350.000000pt" height="350.000000pt" viewBox="0 0 350.000000 350.000000"
 preserveAspectRatio="xMidYMid meet">
<metadata>
Created by potrace 1.14, written by Peter Selinger 2001-2017
</metadata>
<g transform="translate(0.000000,350.000000) scale(0.100000,-0.100000)"
fill="#000000" stroke="none">
<path d="M1260 3235 c-7 -8 -18 -15 -26 -15 -7 0 -20 -8 -29 -17 -15 -14 -16
-30 -11 -107 6 -78 12 -167 19 -276 3 -34 11 -34 -327 5 -57 7 -106 -6 -106
-27 0 -4 -8 -16 -18 -26 -17 -17 -19 -38 -19 -211 0 -105 -3 -194 -6 -197 -3
-4 -19 -7 -34 -9 -47 -4 -139 -15 -164 -20 -12 -3 -59 -7 -103 -10 -134 -8
-165 -15 -183 -41 -21 -32 -10 -72 24 -85 15 -6 54 -7 92 -3 61 6 125 7 306 5
l70 -1 2 -135 2 -135 -67 -1 c-37 -1 -94 -3 -127 -5 -33 -2 -95 -5 -138 -7
-64 -3 -82 -7 -99 -25 -18 -18 -20 -26 -13 -48 13 -35 55 -65 96 -69 19 -2
105 -5 192 -6 107 -1 157 -5 158 -13 0 -6 2 -94 5 -196 l5 -185 -33 1 c-18 0
-110 16 -204 34 -188 36 -219 35 -235 -8 -6 -15 -19 -35 -30 -45 -24 -22 -24
-48 -1 -76 16 -21 26 -22 237 -26 200 -3 261 -7 272 -18 2 -2 5 -95 7 -206 2
-111 5 -203 7 -206 20 -19 65 -32 85 -25 20 8 167 12 340 11 l50 -1 -3 -152
c-2 -135 -6 -179 -20 -238 -11 -49 -5 -88 20 -127 22 -34 33 -43 56 -43 50 0
61 25 61 136 0 77 7 128 30 223 34 137 36 157 27 186 -7 19 -3 20 104 19 61
-1 112 -4 113 -5 5 -6 19 -248 22 -379 1 -63 4 -123 6 -133 7 -30 36 -57 61
-57 49 0 56 23 61 195 3 88 8 171 10 185 2 14 7 52 10 85 12 111 -3 100 132
100 65 0 126 -1 134 -3 11 -2 15 -19 16 -70 1 -77 14 -267 20 -297 3 -11 5
-39 5 -62 2 -70 63 -109 101 -65 38 43 41 63 40 257 -1 104 -4 200 -6 212 -3
14 0 23 7 24 7 0 100 1 209 1 180 0 198 1 213 18 15 17 18 45 18 225 l0 205
76 1 c42 1 79 1 83 0 3 0 19 -3 35 -5 15 -3 49 -8 74 -11 25 -3 74 -12 110
-19 68 -14 104 -7 114 23 3 9 15 21 27 26 12 6 26 17 31 26 13 21 1 65 -20 75
-10 5 -103 9 -208 9 -161 1 -313 10 -323 19 -6 6 -7 248 -1 251 21 14 303 13
386 0 94 -15 119 -13 140 14 22 28 -2 91 -34 91 -7 0 -25 7 -39 17 -16 10 -43
15 -76 14 -28 -1 -114 8 -192 19 -181 27 -188 28 -192 32 -2 2 -6 65 -9 139
l-6 135 198 -1 c109 -1 207 -4 218 -7 50 -13 108 60 86 108 -13 29 -42 37
-119 31 -42 -3 -103 5 -199 24 -76 16 -151 30 -166 31 l-28 2 2 166 c0 90 5
172 9 180 9 18 -13 115 -32 137 -10 12 -28 14 -98 8 -47 -4 -114 -9 -149 -11
l-64 -4 7 62 c13 126 17 163 21 176 3 7 7 52 11 101 l7 89 -42 26 c-83 53
-113 26 -126 -114 -3 -36 -8 -81 -10 -100 -2 -19 -6 -57 -9 -85 -14 -125 -17
-148 -21 -155 -3 -4 -73 -7 -157 -6 l-153 1 1 25 c1 14 4 48 7 75 12 89 18
140 23 165 14 91 16 171 3 186 -19 23 -51 33 -71 23 -24 -13 -68 -105 -74
-153 -5 -44 -31 -225 -38 -266 -3 -14 -5 -31 -5 -39 -1 -11 -28 -12 -148 -8
-82 3 -165 6 -187 7 l-38 0 7 128 c16 284 16 301 -8 322 -25 24 -60 26 -77 5z
m-22 -613 c19 -11 28 -11 54 2 44 23 408 24 408 2 0 -23 29 -46 56 -46 15 0
36 12 53 31 l29 31 178 -5 c280 -9 457 -16 479 -21 11 -2 26 -5 33 -5 7 -1 12
-13 12 -28 -2 -314 14 -1247 26 -1532 3 -76 1 -117 -6 -121 -6 -4 -174 -5
-373 -3 -199 3 -568 5 -820 6 l-459 2 8 200 c14 394 8 1074 -12 1397 l-6 97
68 3 c148 6 249 3 272 -10z"/>
<path d="M1637 2304 c-1 -1 -63 -5 -139 -8 -75 -4 -149 -9 -165 -11 -15 -2
-57 -6 -92 -10 -36 -4 -72 -12 -82 -18 -32 -20 -29 -74 7 -102 14 -11 20 -75
30 -305 12 -257 10 -337 -8 -427 -21 -110 -22 -137 -3 -153 8 -7 15 -23 15
-36 0 -13 9 -33 21 -45 18 -18 28 -20 63 -14 22 3 55 8 71 10 17 2 68 9 115
15 90 14 244 15 531 5 160 -5 176 -4 191 12 23 27 32 102 29 273 -1 85 -3 263
-3 396 -1 234 -1 242 20 264 16 17 20 30 15 49 -3 14 -10 28 -15 29 -4 2 -8
12 -8 21 0 10 -9 26 -21 37 -20 18 -40 19 -296 19 -151 0 -275 -1 -276 -1z"/>
</g>
</svg>
