<svg version="1.1" xmlns="http://www.w3.org/2000/svg" viewBox="0 0 989.6778759748108 390.0324619250109" width="1979.3557519496217" height="780.0649238500218" filter="invert(93%) hue-rotate(180deg)">
  <!-- svg-source:excalidraw -->
  
  <defs>
    <style>
      @font-face {
        font-family: "Virgil";
        src: url("https://excalidraw.com/Virgil.woff2");
      }
      @font-face {
        font-family: "Cascadia";
        src: url("https://excalidraw.com/Cascadia.woff2");
      }
    </style>
  </defs>
  <g stroke-opacity="0.3" fill-opacity="0.3" stroke-linecap="round" transform="translate(10.086715051613282 10.156781663399215) rotate(0 484.7955804615988 25.352073152936896)"><path d="M0 0 C0 0, 0 0, 0 0 M0 0 C0 0, 0 0, 0 0 M-0.26 6.4 C1.77 4.06, 3.8 1.73, 4.99 0.36 M-0.26 6.4 C1.61 4.24, 3.49 2.09, 4.99 0.36 M0.13 12.04 C3.13 8.6, 6.12 5.16, 10.63 -0.03 M0.13 12.04 C2.51 9.31, 4.88 6.58, 10.63 -0.03 M-0.13 18.44 C4.81 12.75, 9.76 7.07, 15.62 0.33 M-0.13 18.44 C5.91 11.49, 11.95 4.54, 15.62 0.33 M0.27 24.08 C8.25 14.9, 16.23 5.72, 21.26 -0.07 M0.27 24.08 C4.66 19.03, 9.05 13.98, 21.26 -0.07 M0 30.48 C8.91 20.24, 17.81 9.99, 26.25 0.29 M0 30.48 C8.95 20.19, 17.89 9.9, 26.25 0.29 M-0.26 36.88 C8.81 26.44, 17.88 16.01, 31.89 -0.1 M-0.26 36.88 C12.19 22.56, 24.63 8.24, 31.89 -0.1 M0.14 42.52 C8.31 33.12, 16.48 23.72, 36.88 0.26 M0.14 42.52 C8.95 32.38, 17.77 22.24, 36.88 0.26 M-0.12 48.92 C16.28 30.05, 32.67 11.19, 42.52 -0.14 M-0.12 48.92 C16.37 29.95, 32.86 10.98, 42.52 -0.14 M2.24 52.3 C15.42 37.14, 28.59 21.98, 47.51 0.22 M2.24 52.3 C12.34 40.68, 22.44 29.06, 47.51 0.22 M7.23 52.66 C18.7 39.45, 30.18 26.25, 53.15 -0.17 M7.23 52.66 C24.02 33.34, 40.82 14.02, 53.15 -0.17 M12.87 52.26 C23.83 39.65, 34.79 27.04, 58.14 0.19 M12.87 52.26 C29.35 33.31, 45.83 14.35, 58.14 0.19 M17.86 52.62 C27.47 41.56, 37.09 30.5, 63.78 -0.21 M17.86 52.62 C27.66 41.35, 37.46 30.08, 63.78 -0.21 M23.5 52.23 C38.94 34.46, 54.39 16.69, 68.77 0.15 M23.5 52.23 C35.6 38.31, 47.7 24.39, 68.77 0.15 M28.49 52.59 C45.15 33.42, 61.81 14.26, 74.41 -0.24 M28.49 52.59 C44.56 34.09, 60.64 15.6, 74.41 -0.24 M34.13 52.19 C44.2 40.61, 54.26 29.03, 79.4 0.12 M34.13 52.19 C46.31 38.18, 58.5 24.16, 79.4 0.12 M39.12 52.55 C56.51 32.54, 73.91 12.53, 85.04 -0.28 M39.12 52.55 C54.16 35.25, 69.2 17.94, 85.04 -0.28 M44.76 52.16 C57.84 37.12, 70.91 22.07, 90.03 0.08 M44.76 52.16 C55.47 39.83, 66.19 27.51, 90.03 0.08 M49.75 52.52 C63.29 36.94, 76.83 21.36, 95.67 -0.31 M49.75 52.52 C60.25 40.44, 70.75 28.36, 95.67 -0.31 M55.39 52.12 C69.53 35.86, 83.67 19.6, 100.66 0.05 M55.39 52.12 C72.07 32.93, 88.76 13.74, 100.66 0.05 M60.38 52.48 C74.94 35.73, 89.51 18.98, 106.3 -0.34 M60.38 52.48 C72.66 38.35, 84.95 24.22, 106.3 -0.34 M65.36 52.84 C76.08 40.52, 86.8 28.19, 111.29 0.02 M65.36 52.84 C83.48 32, 101.6 11.16, 111.29 0.02 M71.01 52.45 C80.99 40.97, 90.97 29.49, 116.27 0.38 M71.01 52.45 C88.64 32.16, 106.28 11.88, 116.27 0.38 M75.99 52.81 C92.58 33.73, 109.17 14.65, 121.92 -0.02 M75.99 52.81 C93.24 32.97, 110.49 13.12, 121.92 -0.02 M81.64 52.42 C97.42 34.26, 113.19 16.11, 126.91 0.34 M81.64 52.42 C93.93 38.28, 106.22 24.14, 126.91 0.34 M86.62 52.78 C103.79 33.03, 120.96 13.28, 132.55 -0.05 M86.62 52.78 C100.59 36.71, 114.56 20.64, 132.55 -0.05 M92.27 52.38 C101.94 41.25, 111.62 30.12, 137.54 0.31 M92.27 52.38 C106.81 35.66, 121.34 18.93, 137.54 0.31 M97.25 52.74 C111.86 35.93, 126.47 19.13, 143.18 -0.09 M97.25 52.74 C111.19 36.71, 125.13 20.67, 143.18 -0.09 M102.9 52.35 C116.35 36.87, 129.81 21.39, 148.17 0.27 M102.9 52.35 C115.47 37.88, 128.05 23.41, 148.17 0.27 M107.88 52.71 C117.51 41.64, 127.13 30.56, 153.81 -0.12 M107.88 52.71 C118.39 40.62, 128.89 28.54, 153.81 -0.12 M113.53 52.31 C124.8 39.35, 136.07 26.38, 158.8 0.24 M113.53 52.31 C123.11 41.29, 132.7 30.26, 158.8 0.24 M118.51 52.67 C129.19 40.39, 139.86 28.11, 164.44 -0.16 M118.51 52.67 C130.71 38.64, 142.91 24.61, 164.44 -0.16 M124.16 52.28 C137.17 37.31, 150.19 22.33, 169.43 0.2 M124.16 52.28 C138.86 35.37, 153.55 18.46, 169.43 0.2 M129.14 52.64 C144.75 34.69, 160.35 16.74, 175.07 -0.19 M129.14 52.64 C144.37 35.12, 159.6 17.6, 175.07 -0.19 M134.79 52.24 C143.85 41.81, 152.92 31.38, 180.06 0.17 M134.79 52.24 C150.61 34.04, 166.44 15.84, 180.06 0.17 M139.77 52.6 C151.41 39.22, 163.04 25.84, 185.7 -0.23 M139.77 52.6 C152.41 38.07, 165.05 23.53, 185.7 -0.23 M145.42 52.21 C160.97 34.32, 176.51 16.44, 190.69 0.13 M145.42 52.21 C161.28 33.96, 177.15 15.7, 190.69 0.13 M150.4 52.57 C162.51 38.64, 174.62 24.72, 196.33 -0.26 M150.4 52.57 C163.08 37.98, 175.76 23.4, 196.33 -0.26 M156.05 52.17 C167 39.57, 177.95 26.97, 201.32 0.1 M156.05 52.17 C170.67 35.36, 185.28 18.54, 201.32 0.1 M161.03 52.53 C171.59 40.39, 182.15 28.24, 206.96 -0.3 M161.03 52.53 C172.3 39.57, 183.57 26.61, 206.96 -0.3 M166.68 52.14 C184.31 31.86, 201.93 11.58, 211.95 0.06 M166.68 52.14 C184.49 31.65, 202.3 11.16, 211.95 0.06 M171.66 52.5 C189.13 32.41, 206.6 12.31, 217.59 -0.33 M171.66 52.5 C182.02 40.59, 192.37 28.68, 217.59 -0.33 M176.65 52.86 C188.05 39.75, 199.45 26.63, 222.58 0.03 M176.65 52.86 C186.76 41.23, 196.87 29.61, 222.58 0.03 M182.29 52.47 C196.6 36, 210.91 19.54, 228.22 -0.36 M182.29 52.47 C200.19 31.88, 218.08 11.3, 228.22 -0.36 M187.28 52.83 C198.74 39.64, 210.2 26.46, 233.21 0 M187.28 52.83 C205.28 32.12, 223.28 11.42, 233.21 0 M192.92 52.43 C210.54 32.16, 228.16 11.9, 238.19 0.36 M192.92 52.43 C203.92 39.78, 214.92 27.13, 238.19 0.36 M197.91 52.79 C215.97 32.02, 234.03 11.24, 243.84 -0.04 M197.91 52.79 C208.44 40.67, 218.98 28.56, 243.84 -0.04 M203.55 52.4 C219.28 34.3, 235.01 16.21, 248.82 0.32 M203.55 52.4 C213.57 40.88, 223.58 29.36, 248.82 0.32 M208.54 52.76 C219.93 39.65, 231.32 26.55, 254.47 -0.07 M208.54 52.76 C226.18 32.47, 243.82 12.18, 254.47 -0.07 M214.19 52.36 C227.28 37.29, 240.38 22.23, 259.45 0.29 M214.19 52.36 C227.39 37.17, 240.6 21.97, 259.45 0.29 M219.17 52.72 C235.3 34.16, 251.44 15.61, 265.1 -0.11 M219.17 52.72 C230.15 40.1, 241.12 27.47, 265.1 -0.11 M224.82 52.33 C237.79 37.4, 250.77 22.46, 270.08 0.25 M224.82 52.33 C240.81 33.93, 256.8 15.53, 270.08 0.25 M229.8 52.69 C239.41 41.64, 249.01 30.59, 275.73 -0.14 M229.8 52.69 C243.96 36.4, 258.11 20.12, 275.73 -0.14 M235.45 52.29 C252.65 32.5, 269.86 12.71, 280.71 0.22 M235.45 52.29 C246.1 40.03, 256.76 27.77, 280.71 0.22 M240.43 52.65 C254.05 36.99, 267.67 21.32, 286.36 -0.18 M240.43 52.65 C251.33 40.12, 262.22 27.59, 286.36 -0.18 M246.08 52.26 C263.22 32.54, 280.36 12.82, 291.34 0.18 M246.08 52.26 C259.62 36.68, 273.17 21.09, 291.34 0.18 M251.06 52.62 C262.87 39.04, 274.68 25.45, 296.99 -0.21 M251.06 52.62 C260.37 41.91, 269.68 31.2, 296.99 -0.21 M256.71 52.22 C268.5 38.66, 280.3 25.09, 301.97 0.15 M256.71 52.22 C267.44 39.88, 278.17 27.54, 301.97 0.15 M261.69 52.58 C275.62 36.56, 289.55 20.54, 307.62 -0.25 M261.69 52.58 C276.04 36.08, 290.39 19.57, 307.62 -0.25 M267.34 52.19 C284.2 32.79, 301.06 13.39, 312.6 0.11 M267.34 52.19 C279.66 38.01, 291.99 23.83, 312.6 0.11 M272.32 52.55 C282.25 41.13, 292.17 29.71, 318.25 -0.28 M272.32 52.55 C281.77 41.68, 291.22 30.81, 318.25 -0.28 M277.97 52.15 C288.38 40.18, 298.79 28.2, 323.23 0.08 M277.97 52.15 C294.26 33.41, 310.55 14.67, 323.23 0.08 M282.95 52.52 C298.83 34.26, 314.7 16, 328.88 -0.31 M282.95 52.52 C294.57 39.15, 306.18 25.79, 328.88 -0.31 M287.94 52.88 C302.52 36.11, 317.09 19.34, 333.86 0.05 M287.94 52.88 C305.66 32.49, 323.38 12.11, 333.86 0.05 M293.58 52.48 C303.25 41.36, 312.91 30.25, 339.51 -0.35 M293.58 52.48 C309.91 33.69, 326.25 14.91, 339.51 -0.35 M298.57 52.84 C311.78 37.64, 324.99 22.44, 344.49 0.01 M298.57 52.84 C315.44 33.43, 332.31 14.03, 344.49 0.01 M304.21 52.45 C317.7 36.93, 331.18 21.42, 349.48 0.37 M304.21 52.45 C319.91 34.39, 335.61 16.32, 349.48 0.37 M309.2 52.81 C325.85 33.65, 342.51 14.49, 355.12 -0.02 M309.2 52.81 C320.82 39.44, 332.44 26.07, 355.12 -0.02 M314.84 52.41 C326.8 38.65, 338.76 24.9, 360.11 0.34 M314.84 52.41 C332.53 32.07, 350.21 11.72, 360.11 0.34 M319.83 52.77 C335.11 35.19, 350.4 17.61, 365.75 -0.06 M319.83 52.77 C334.65 35.73, 349.46 18.68, 365.75 -0.06 M325.47 52.38 C340.6 34.97, 355.73 17.57, 370.74 0.3 M325.47 52.38 C342.79 32.46, 360.11 12.54, 370.74 0.3 M330.46 52.74 C346.87 33.86, 363.29 14.97, 376.38 -0.09 M330.46 52.74 C348.24 32.28, 366.02 11.83, 376.38 -0.09 M336.1 52.34 C349.76 36.63, 363.42 20.92, 381.37 0.27 M336.1 52.34 C351.91 34.16, 367.71 15.98, 381.37 0.27 M341.09 52.7 C357.83 33.45, 374.57 14.19, 387.01 -0.13 M341.09 52.7 C358.95 32.15, 376.82 11.6, 387.01 -0.13 M346.73 52.31 C361.62 35.18, 376.51 18.05, 392 0.23 M346.73 52.31 C357.97 39.38, 369.21 26.45, 392 0.23 M351.72 52.67 C363.24 39.41, 374.77 26.16, 397.64 -0.16 M351.72 52.67 C360.98 42.02, 370.24 31.37, 397.64 -0.16 M357.36 52.27 C373.08 34.2, 388.79 16.12, 402.63 0.2 M357.36 52.27 C374.08 33.04, 390.79 13.82, 402.63 0.2 M362.35 52.63 C375.31 37.73, 388.26 22.83, 408.27 -0.2 M362.35 52.63 C372.9 40.49, 383.46 28.36, 408.27 -0.2 M367.99 52.24 C379.59 38.9, 391.18 25.56, 413.26 0.16 M367.99 52.24 C383.04 34.93, 398.09 17.62, 413.26 0.16 M372.98 52.6 C386.41 37.15, 399.84 21.71, 418.9 -0.23 M372.98 52.6 C382.6 41.53, 392.23 30.46, 418.9 -0.23 M378.62 52.2 C393.32 35.3, 408.02 18.39, 423.89 0.13 M378.62 52.2 C391.72 37.13, 404.82 22.06, 423.89 0.13 M383.61 52.56 C396.69 37.52, 409.77 22.48, 429.53 -0.26 M383.61 52.56 C393.17 41.56, 402.74 30.56, 429.53 -0.26 M389.25 52.17 C406.91 31.86, 424.57 11.54, 434.52 0.1 M389.25 52.17 C403.88 35.34, 418.51 18.52, 434.52 0.1 M394.24 52.53 C404.85 40.32, 415.46 28.12, 440.16 -0.3 M394.24 52.53 C404.54 40.68, 414.85 28.83, 440.16 -0.3 M399.88 52.14 C411.59 38.67, 423.3 25.2, 445.15 0.06 M399.88 52.14 C411.1 39.23, 422.32 26.33, 445.15 0.06 M404.87 52.5 C417.35 38.14, 429.83 23.78, 450.79 -0.33 M404.87 52.5 C422.67 32.02, 440.48 11.54, 450.79 -0.33 M409.86 52.86 C423.87 36.74, 437.88 20.63, 455.78 0.03 M409.86 52.86 C419.45 41.83, 429.03 30.8, 455.78 0.03 M415.5 52.46 C430.02 35.76, 444.54 19.06, 461.42 -0.37 M415.5 52.46 C432 33.48, 448.49 14.51, 461.42 -0.37 M420.49 52.82 C433.03 38.39, 445.57 23.97, 466.41 -0.01 M420.49 52.82 C433.47 37.88, 446.46 22.95, 466.41 -0.01 M426.13 52.43 C437.1 39.81, 448.06 27.2, 471.4 0.35 M426.13 52.43 C441.13 35.17, 456.13 17.92, 471.4 0.35 M431.12 52.79 C443.76 38.25, 456.39 23.71, 477.04 -0.04 M431.12 52.79 C443.87 38.12, 456.61 23.46, 477.04 -0.04 M436.76 52.39 C450.2 36.94, 463.63 21.48, 482.03 0.32 M436.76 52.39 C447.06 40.55, 457.35 28.7, 482.03 0.32 M441.75 52.75 C459.77 32.02, 477.79 11.29, 487.67 -0.08 M441.75 52.75 C457.02 35.19, 472.29 17.62, 487.67 -0.08 M447.39 52.36 C460.76 36.97, 474.14 21.59, 492.66 0.28 M447.39 52.36 C461.08 36.61, 474.78 20.86, 492.66 0.28 M452.38 52.72 C464.99 38.2, 477.61 23.69, 498.3 -0.11 M452.38 52.72 C466.98 35.92, 481.57 19.13, 498.3 -0.11 M458.02 52.32 C468.09 40.74, 478.15 29.17, 503.29 0.25 M458.02 52.32 C473.52 34.49, 489.02 16.67, 503.29 0.25 M463.01 52.68 C478.66 34.68, 494.31 16.68, 508.93 -0.15 M463.01 52.68 C473.82 40.25, 484.63 27.81, 508.93 -0.15 M468.65 52.29 C479.09 40.28, 489.53 28.27, 513.92 0.21 M468.65 52.29 C480.62 38.52, 492.59 24.75, 513.92 0.21 M473.64 52.65 C490.99 32.68, 508.35 12.72, 519.56 -0.18 M473.64 52.65 C483.65 41.14, 493.65 29.63, 519.56 -0.18 M479.28 52.25 C490.23 39.66, 501.18 27.06, 524.55 0.18 M479.28 52.25 C493.64 35.73, 508 19.21, 524.55 0.18 M484.27 52.61 C499.99 34.53, 515.71 16.44, 530.19 -0.22 M484.27 52.61 C499.41 35.2, 514.54 17.79, 530.19 -0.22 M489.91 52.22 C505.62 34.15, 521.32 16.09, 535.18 0.14 M489.91 52.22 C502.61 37.61, 515.31 23.01, 535.18 0.14 M494.9 52.58 C511.38 33.62, 527.87 14.65, 540.82 -0.25 M494.9 52.58 C511.7 33.25, 528.51 13.91, 540.82 -0.25 M500.54 52.19 C509.81 41.52, 519.08 30.85, 545.81 0.11 M500.54 52.19 C512.55 38.37, 524.56 24.55, 545.81 0.11 M505.53 52.55 C520.29 35.57, 535.05 18.59, 551.45 -0.28 M505.53 52.55 C517.17 39.15, 528.82 25.75, 551.45 -0.28 M511.17 52.15 C522.2 39.46, 533.23 26.78, 556.44 0.08 M511.17 52.15 C525.38 35.8, 539.59 19.46, 556.44 0.08 M516.16 52.51 C529.57 37.08, 542.98 21.65, 562.08 -0.32 M516.16 52.51 C527.65 39.29, 539.15 26.06, 562.08 -0.32 M521.15 52.87 C533.09 39.13, 545.04 25.38, 567.07 0.04 M521.15 52.87 C539.51 31.74, 557.88 10.62, 567.07 0.04 M526.79 52.48 C540.66 36.52, 554.54 20.56, 572.71 -0.35 M526.79 52.48 C542.65 34.23, 558.52 15.98, 572.71 -0.35 M531.78 52.84 C541.88 41.22, 551.98 29.6, 577.7 0.01 M531.78 52.84 C542.25 40.79, 552.72 28.75, 577.7 0.01 M537.42 52.44 C553.33 34.14, 569.24 15.84, 582.69 0.37 M537.42 52.44 C549.16 38.94, 560.89 25.44, 582.69 0.37 M542.41 52.8 C554.22 39.21, 566.04 25.62, 588.33 -0.03 M542.41 52.8 C553.16 40.43, 563.92 28.05, 588.33 -0.03 M548.05 52.41 C557.5 41.54, 566.95 30.67, 593.32 0.33 M548.05 52.41 C559.07 39.72, 570.1 27.04, 593.32 0.33 M553.04 52.77 C565.67 38.23, 578.3 23.7, 598.96 -0.06 M553.04 52.77 C570.76 32.38, 588.49 11.98, 598.96 -0.06 M558.68 52.37 C568.25 41.37, 577.81 30.36, 603.95 0.3 M558.68 52.37 C571.4 37.73, 584.13 23.09, 603.95 0.3 M563.67 52.73 C579.52 34.49, 595.38 16.25, 609.59 -0.1 M563.67 52.73 C581.2 32.57, 598.72 12.4, 609.59 -0.1 M569.31 52.34 C581.33 38.52, 593.34 24.69, 614.58 0.26 M569.31 52.34 C582.26 37.44, 595.22 22.53, 614.58 0.26 M574.3 52.7 C588.46 36.41, 602.61 20.12, 620.22 -0.13 M574.3 52.7 C585.83 39.43, 597.37 26.16, 620.22 -0.13 M579.94 52.3 C591.07 39.5, 602.21 26.69, 625.21 0.23 M579.94 52.3 C593.71 36.47, 607.47 20.63, 625.21 0.23 M584.93 52.66 C602.08 32.93, 619.23 13.2, 630.85 -0.17 M584.93 52.66 C601.25 33.88, 617.58 15.1, 630.85 -0.17 M590.57 52.27 C608.52 31.62, 626.47 10.97, 635.84 0.19 M590.57 52.27 C604.67 36.04, 618.78 19.82, 635.84 0.19 M595.56 52.63 C610.2 35.79, 624.84 18.95, 641.48 -0.2 M595.56 52.63 C613.32 32.19, 631.09 11.75, 641.48 -0.2 M601.2 52.23 C616.12 35.07, 631.03 17.91, 646.47 0.16 M601.2 52.23 C611 40.96, 620.8 29.68, 646.47 0.16 M606.19 52.6 C619.55 37.22, 632.92 21.85, 652.11 -0.23 M606.19 52.6 C623.13 33.11, 640.07 13.62, 652.11 -0.23 M611.83 52.2 C622.07 40.42, 632.3 28.65, 657.1 0.13 M611.83 52.2 C623.51 38.76, 635.2 25.32, 657.1 0.13 M616.82 52.56 C626.26 41.69, 635.71 30.82, 662.74 -0.27 M616.82 52.56 C628.59 39.02, 640.36 25.47, 662.74 -0.27 M622.46 52.17 C633.15 39.86, 643.85 27.56, 667.73 0.09 M622.46 52.17 C631.82 41.4, 641.17 30.64, 667.73 0.09 M627.45 52.53 C643.39 34.18, 659.33 15.84, 673.37 -0.3 M627.45 52.53 C642.84 34.82, 658.24 17.1, 673.37 -0.3 M633.09 52.13 C645.7 37.63, 658.31 23.12, 678.36 0.06 M633.09 52.13 C649.56 33.18, 666.04 14.23, 678.36 0.06 M638.08 52.49 C654.99 33.03, 671.91 13.57, 684 -0.34 M638.08 52.49 C648.31 40.72, 658.55 28.94, 684 -0.34 M643.06 52.85 C654.1 40.15, 665.14 27.45, 688.99 0.02 M643.06 52.85 C659.73 33.68, 676.39 14.52, 688.99 0.02 M648.71 52.46 C662.08 37.08, 675.45 21.7, 694.63 -0.37 M648.71 52.46 C661 38.31, 673.3 24.17, 694.63 -0.37 M653.69 52.82 C671.05 32.85, 688.4 12.89, 699.62 -0.01 M653.69 52.82 C670.57 33.41, 687.44 13.99, 699.62 -0.01 M659.34 52.42 C673.19 36.49, 687.04 20.56, 704.6 0.35 M659.34 52.42 C675.17 34.21, 691 16, 704.6 0.35 M664.32 52.78 C678.84 36.08, 693.35 19.39, 710.25 -0.05 M664.32 52.78 C676.87 38.35, 689.42 23.91, 710.25 -0.05 M669.97 52.39 C686.81 33.01, 703.66 13.63, 715.23 0.31 M669.97 52.39 C682.63 37.82, 695.3 23.25, 715.23 0.31 M674.95 52.75 C686.37 39.62, 697.78 26.49, 720.88 -0.08 M674.95 52.75 C689.05 36.54, 703.14 20.33, 720.88 -0.08 M680.6 52.35 C690.45 41.02, 700.3 29.68, 725.86 0.28 M680.6 52.35 C689.66 41.93, 698.72 31.5, 725.86 0.28 M685.58 52.71 C701.09 34.88, 716.59 17.04, 731.51 -0.12 M685.58 52.71 C695.97 40.76, 706.36 28.81, 731.51 -0.12 M691.23 52.32 C706.59 34.65, 721.95 16.97, 736.5 0.24 M691.23 52.32 C708.63 32.3, 726.04 12.27, 736.5 0.24 M696.21 52.68 C710.66 36.06, 725.1 19.45, 742.14 -0.15 M696.21 52.68 C710.93 35.75, 725.65 18.82, 742.14 -0.15 M701.86 52.28 C711.03 41.73, 720.21 31.17, 747.13 0.21 M701.86 52.28 C712.61 39.91, 723.36 27.54, 747.13 0.21 M706.84 52.64 C719.66 37.9, 732.49 23.15, 752.77 -0.19 M706.84 52.64 C716.49 41.55, 726.13 30.46, 752.77 -0.19 M712.49 52.25 C723.45 39.64, 734.4 27.04, 757.76 0.18 M712.49 52.25 C725.85 36.87, 739.22 21.49, 757.76 0.18 M717.47 52.61 C731.26 36.75, 745.05 20.89, 763.4 -0.22 M717.47 52.61 C728.8 39.59, 740.12 26.56, 763.4 -0.22 M723.12 52.22 C734.9 38.66, 746.69 25.1, 768.39 0.14 M723.12 52.22 C733.31 40.49, 743.49 28.77, 768.39 0.14 M728.1 52.58 C737.98 41.22, 747.85 29.86, 774.03 -0.25 M728.1 52.58 C742.48 36.04, 756.85 19.51, 774.03 -0.25 M733.75 52.18 C744.13 40.23, 754.52 28.28, 779.02 0.11 M733.75 52.18 C743.95 40.44, 754.15 28.71, 779.02 0.11 M738.73 52.54 C749.28 40.4, 759.83 28.27, 784.66 -0.29 M738.73 52.54 C748.99 40.74, 759.25 28.94, 784.66 -0.29 M744.38 52.15 C757.5 37.05, 770.62 21.96, 789.65 0.07 M744.38 52.15 C754.61 40.37, 764.84 28.6, 789.65 0.07 M749.36 52.51 C764.03 35.64, 778.69 18.77, 795.29 -0.32 M749.36 52.51 C764.21 35.43, 779.06 18.35, 795.29 -0.32 M754.35 52.87 C770.46 34.34, 786.57 15.81, 800.28 0.04 M754.35 52.87 C767.58 37.65, 780.81 22.43, 800.28 0.04 M759.99 52.47 C770.44 40.46, 780.88 28.45, 805.92 -0.36 M759.99 52.47 C773.28 37.19, 786.57 21.91, 805.92 -0.36 M764.98 52.83 C778.31 37.5, 791.64 22.16, 810.91 0 M764.98 52.83 C774.34 42.07, 783.7 31.3, 810.91 0 M770.62 52.44 C782.68 38.57, 794.73 24.7, 815.89 0.36 M770.62 52.44 C785.53 35.29, 800.44 18.14, 815.89 0.36 M775.61 52.8 C791.92 34.03, 808.23 15.27, 821.54 -0.03 M775.61 52.8 C789.24 37.12, 802.86 21.45, 821.54 -0.03 M781.25 52.4 C795.62 35.88, 809.98 19.36, 826.52 0.33 M781.25 52.4 C798.57 32.48, 815.89 12.56, 826.52 0.33 M786.24 52.76 C802.82 33.69, 819.4 14.62, 832.17 -0.07 M786.24 52.76 C796.42 41.06, 806.59 29.35, 832.17 -0.07 M791.88 52.37 C802.31 40.38, 812.73 28.39, 837.15 0.29 M791.88 52.37 C806.34 35.74, 820.79 19.11, 837.15 0.29 M796.87 52.73 C810.28 37.31, 823.69 21.88, 842.8 -0.1 M796.87 52.73 C813.61 33.48, 830.34 14.22, 842.8 -0.1 M802.51 52.33 C812.64 40.68, 822.77 29.03, 847.78 0.26 M802.51 52.33 C817.97 34.56, 833.42 16.78, 847.78 0.26 M807.5 52.69 C821.33 36.79, 835.16 20.88, 853.43 -0.14 M807.5 52.69 C818.64 39.88, 829.79 27.06, 853.43 -0.14 M813.14 52.3 C826.06 37.45, 838.97 22.59, 858.41 0.22 M813.14 52.3 C830.42 32.43, 847.69 12.56, 858.41 0.22 M818.13 52.66 C832.38 36.27, 846.63 19.88, 864.06 -0.17 M818.13 52.66 C832.12 36.57, 846.11 20.47, 864.06 -0.17 M823.78 52.27 C840.57 32.95, 857.36 13.64, 869.04 0.19 M823.78 52.27 C837.54 36.43, 851.3 20.6, 869.04 0.19 M828.76 52.63 C838.4 41.54, 848.04 30.45, 874.69 -0.2 M828.76 52.63 C843.93 35.18, 859.1 17.73, 874.69 -0.2 M834.41 52.23 C843.71 41.52, 853.02 30.82, 879.67 0.16 M834.41 52.23 C848.18 36.38, 861.96 20.54, 879.67 0.16 M839.39 52.59 C851.3 38.89, 863.21 25.19, 885.32 -0.24 M839.39 52.59 C849.98 40.41, 860.57 28.23, 885.32 -0.24 M845.04 52.2 C857.85 37.46, 870.66 22.72, 890.3 0.12 M845.04 52.2 C859.02 36.11, 873.01 20.02, 890.3 0.12 M850.02 52.56 C863.19 37.41, 876.35 22.27, 895.95 -0.27 M850.02 52.56 C861.4 39.47, 872.78 26.38, 895.95 -0.27 M855.67 52.16 C867.69 38.33, 879.71 24.5, 900.93 0.09 M855.67 52.16 C872.68 32.59, 889.7 13.01, 900.93 0.09 M860.65 52.52 C873.9 37.28, 887.15 22.04, 906.58 -0.31 M860.65 52.52 C876.98 33.74, 893.3 14.96, 906.58 -0.31 M866.3 52.13 C883.7 32.11, 901.09 12.1, 911.56 0.05 M866.3 52.13 C879.62 36.8, 892.94 21.48, 911.56 0.05 M871.28 52.49 C881.86 40.31, 892.45 28.14, 917.21 -0.34 M871.28 52.49 C883.15 38.84, 895.02 25.18, 917.21 -0.34 M876.27 52.85 C887.26 40.2, 898.25 27.56, 922.19 0.02 M876.27 52.85 C893.93 32.53, 911.59 12.22, 922.19 0.02 M881.91 52.45 C893.25 39.42, 904.58 26.38, 927.84 -0.38 M881.91 52.45 C899.95 31.71, 917.98 10.96, 927.84 -0.38 M886.9 52.81 C905.23 31.73, 923.56 10.65, 932.82 -0.02 M886.9 52.81 C900.6 37.05, 914.3 21.29, 932.82 -0.02 M892.54 52.42 C903.43 39.89, 914.32 27.36, 937.81 0.34 M892.54 52.42 C907.28 35.47, 922.01 18.52, 937.81 0.34 M897.53 52.78 C906.76 42.16, 916 31.53, 943.45 -0.05 M897.53 52.78 C907.57 41.23, 917.61 29.68, 943.45 -0.05 M903.17 52.38 C916.01 37.62, 928.84 22.85, 948.44 0.31 M903.17 52.38 C919.26 33.87, 935.35 15.37, 948.44 0.31 M908.16 52.74 C924.3 34.18, 940.44 15.61, 954.08 -0.09 M908.16 52.74 C920.07 39.04, 931.99 25.33, 954.08 -0.09 M913.8 52.35 C923.59 41.09, 933.38 29.83, 959.07 0.27 M913.8 52.35 C927.94 36.09, 942.07 19.83, 959.07 0.27 M918.79 52.71 C933.72 35.54, 948.65 18.36, 964.71 -0.12 M918.79 52.71 C931.02 38.64, 943.25 24.57, 964.71 -0.12 M924.43 52.31 C935.66 39.4, 946.88 26.49, 969.7 0.24 M924.43 52.31 C940.6 33.72, 956.76 15.13, 969.7 0.24 M929.42 52.67 C944.29 35.57, 959.16 18.46, 970.1 5.88 M929.42 52.67 C938.2 42.58, 946.98 32.48, 970.1 5.88 M935.06 52.28 C947.47 38.01, 959.87 23.75, 969.83 12.28 M935.06 52.28 C948.35 37, 961.63 21.72, 969.83 12.28 M940.05 52.64 C948.48 42.95, 956.91 33.25, 969.57 18.68 M940.05 52.64 C946.42 45.31, 952.8 37.97, 969.57 18.68 M945.69 52.25 C952.71 44.17, 959.74 36.09, 969.97 24.32 M945.69 52.25 C950.81 46.36, 955.93 40.47, 969.97 24.32 M950.68 52.61 C955.74 46.79, 960.8 40.97, 969.71 30.72 M950.68 52.61 C956.5 45.91, 962.31 39.22, 969.71 30.72 M956.32 52.21 C961.3 46.49, 966.27 40.76, 970.1 36.36 M956.32 52.21 C961.81 45.9, 967.29 39.59, 970.1 36.36 M961.31 52.57 C963.5 50.05, 965.69 47.54, 969.84 42.76 M961.31 52.57 C963.49 50.06, 965.67 47.55, 969.84 42.76 M966.95 52.18 C967.63 51.4, 968.3 50.63, 969.58 49.16 M966.95 52.18 C967.56 51.48, 968.16 50.79, 969.58 49.16 M-0.2 50.53 C-0.2 50.53, -0.2 50.53, -0.2 50.53 M-0.2 50.53 C-0.2 50.53, -0.2 50.53, -0.2 50.53 M6.2 50.79 C4.82 49.59, 3.44 48.39, 0.16 45.54 M6.2 50.79 C4.24 49.09, 2.29 47.39, 0.16 45.54 M11.84 50.4 C8.07 47.12, 4.29 43.84, -0.23 39.9 M11.84 50.4 C8.53 47.52, 5.22 44.64, -0.23 39.9 M18.24 50.66 C12.82 45.95, 7.4 41.23, 0.13 34.91 M18.24 50.66 C14.11 47.07, 9.99 43.48, 0.13 34.91 M24.64 50.92 C16.63 43.96, 8.63 37.01, -0.27 29.27 M24.64 50.92 C16.18 43.57, 7.72 36.22, -0.27 29.27 M30.28 50.53 C22.47 43.73, 14.65 36.94, 0.09 24.28 M30.28 50.53 C23.57 44.7, 16.87 38.87, 0.09 24.28 M36.68 50.79 C28.26 43.47, 19.84 36.15, -0.3 18.64 M36.68 50.79 C27.09 42.45, 17.5 34.12, -0.3 18.64 M42.32 50.39 C31.06 40.6, 19.79 30.81, 0.06 13.65 M42.32 50.39 C28.9 38.72, 15.47 27.05, 0.06 13.65 M48.72 50.65 C37.68 41.06, 26.64 31.46, -0.34 8.01 M48.72 50.65 C35.97 39.57, 23.22 28.49, -0.34 8.01 M55.12 50.92 C41.32 38.92, 27.51 26.92, 0.02 3.02 M55.12 50.92 C40.98 38.62, 26.83 26.33, 0.02 3.02 M60.76 50.52 C44.3 36.22, 27.85 21.91, 1.14 -1.31 M60.76 50.52 C42.91 35, 25.06 19.48, 1.14 -1.31 M67.16 50.78 C48.82 34.85, 30.49 18.91, 7.53 -1.05 M67.16 50.78 C48.51 34.57, 29.87 18.37, 7.53 -1.05 M72.8 50.39 C54.22 34.24, 35.64 18.08, 13.18 -1.44 M72.8 50.39 C56.88 36.55, 40.97 22.72, 13.18 -1.44 M79.2 50.65 C61.13 34.94, 43.06 19.24, 19.58 -1.18 M79.2 50.65 C61.87 35.59, 44.54 20.53, 19.58 -1.18 M85.6 50.91 C71.59 38.74, 57.59 26.57, 25.22 -1.57 M85.6 50.91 C62.48 30.81, 39.36 10.71, 25.22 -1.57 M91.24 50.52 C75.06 36.45, 58.87 22.38, 31.62 -1.31 M91.24 50.52 C71.78 33.6, 52.32 16.69, 31.62 -1.31 M97.64 50.78 C79.43 34.95, 61.22 19.12, 38.01 -1.05 M97.64 50.78 C73.85 30.1, 50.06 9.42, 38.01 -1.05 M103.28 50.38 C90.42 39.2, 77.56 28.03, 43.66 -1.45 M103.28 50.38 C86.15 35.5, 69.03 20.61, 43.66 -1.45 M109.68 50.64 C87.64 31.49, 65.61 12.33, 50.06 -1.18 M109.68 50.64 C85.94 30.01, 62.21 9.38, 50.06 -1.18 M116.07 50.91 C97.51 34.76, 78.94 18.62, 55.7 -1.58 M116.07 50.91 C93.63 31.39, 71.18 11.88, 55.7 -1.58 M121.72 50.51 C107.97 38.56, 94.23 26.61, 62.1 -1.32 M121.72 50.51 C98.21 30.07, 74.7 9.64, 62.1 -1.32 M128.12 50.77 C110.97 35.87, 93.82 20.96, 68.49 -1.06 M128.12 50.77 C109.64 34.72, 91.17 18.66, 68.49 -1.06 M133.76 50.38 C118.06 36.73, 102.37 23.09, 74.14 -1.45 M133.76 50.38 C113.9 33.11, 94.04 15.85, 74.14 -1.45 M140.16 50.64 C124.35 36.9, 108.55 23.16, 80.53 -1.19 M140.16 50.64 C118.55 31.86, 96.95 13.08, 80.53 -1.19 M146.55 50.9 C133.8 39.81, 121.04 28.72, 86.18 -1.58 M146.55 50.9 C128.97 35.62, 111.4 20.34, 86.18 -1.58 M152.2 50.51 C133.24 34.02, 114.27 17.54, 92.58 -1.32 M152.2 50.51 C133.02 33.84, 113.85 17.17, 92.58 -1.32 M158.6 50.77 C135.52 30.71, 112.44 10.64, 98.97 -1.06 M158.6 50.77 C142.12 36.44, 125.64 22.12, 98.97 -1.06 M164.99 51.03 C147.29 35.64, 129.58 20.25, 104.62 -1.46 M164.99 51.03 C146.2 34.69, 127.41 18.36, 104.62 -1.46 M170.64 50.63 C154.43 36.55, 138.23 22.46, 111.01 -1.19 M170.64 50.63 C157.05 38.83, 143.47 27.02, 111.01 -1.19 M177.03 50.9 C164.58 40.07, 152.13 29.25, 116.66 -1.59 M177.03 50.9 C153.73 30.64, 130.43 10.38, 116.66 -1.59 M182.68 50.5 C163.88 34.16, 145.07 17.81, 123.06 -1.33 M182.68 50.5 C169.8 39.3, 156.91 28.11, 123.06 -1.33 M189.07 50.76 C174.69 38.26, 160.31 25.76, 129.45 -1.07 M189.07 50.76 C169.29 33.57, 149.51 16.37, 129.45 -1.07 M195.47 51.02 C175.16 33.37, 154.86 15.72, 135.1 -1.46 M195.47 51.02 C180.82 38.29, 166.17 25.56, 135.1 -1.46 M201.12 50.63 C180.17 32.42, 159.22 14.21, 141.49 -1.2 M201.12 50.63 C185.25 36.84, 169.39 23.05, 141.49 -1.2 M207.51 50.89 C188.06 33.98, 168.6 17.07, 147.14 -1.59 M207.51 50.89 C192.99 38.27, 178.47 25.65, 147.14 -1.59 M213.16 50.5 C197.76 37.11, 182.36 23.72, 153.53 -1.33 M213.16 50.5 C199.01 38.2, 184.86 25.89, 153.53 -1.33 M219.55 50.76 C205.89 38.88, 192.23 27.01, 159.93 -1.07 M219.55 50.76 C203.23 36.57, 186.9 22.38, 159.93 -1.07 M225.95 51.02 C210.7 37.76, 195.45 24.5, 165.58 -1.47 M225.95 51.02 C212.35 39.19, 198.74 27.37, 165.58 -1.47 M231.6 50.62 C208.82 30.83, 186.05 11.03, 171.97 -1.2 M231.6 50.62 C211.44 33.11, 191.29 15.59, 171.97 -1.2 M237.99 50.89 C214.23 30.23, 190.46 9.57, 177.62 -1.6 M237.99 50.89 C217.4 32.98, 196.81 15.08, 177.62 -1.6 M243.64 50.49 C227.28 36.27, 210.92 22.05, 184.01 -1.34 M243.64 50.49 C222.19 31.85, 200.75 13.21, 184.01 -1.34 M250.03 50.75 C231.59 34.72, 213.15 18.69, 190.41 -1.08 M250.03 50.75 C236.51 38.99, 222.98 27.23, 190.41 -1.08 M256.43 51.01 C234.16 31.66, 211.9 12.3, 196.05 -1.47 M256.43 51.01 C232.48 30.19, 208.52 9.37, 196.05 -1.47 M262.07 50.62 C238.44 30.07, 214.8 9.53, 202.45 -1.21 M262.07 50.62 C246.79 37.33, 231.51 24.05, 202.45 -1.21 M268.47 50.88 C250.58 35.33, 232.69 19.78, 208.1 -1.6 M268.47 50.88 C254.08 38.37, 239.68 25.85, 208.1 -1.6 M274.12 50.49 C260.96 39.05, 247.81 27.62, 214.49 -1.34 M274.12 50.49 C254.19 33.17, 234.27 15.85, 214.49 -1.34 M280.51 50.75 C265.2 37.43, 249.88 24.12, 220.89 -1.08 M280.51 50.75 C268.28 40.12, 256.05 29.48, 220.89 -1.08 M286.91 51.01 C267.83 34.42, 248.75 17.84, 226.53 -1.47 M286.91 51.01 C269.02 35.46, 251.12 19.9, 226.53 -1.47 M292.55 50.62 C279.49 39.26, 266.42 27.9, 232.93 -1.21 M292.55 50.62 C271.78 32.55, 251 14.49, 232.93 -1.21 M298.95 50.88 C275.66 30.63, 252.38 10.39, 238.58 -1.61 M298.95 50.88 C280.22 34.59, 261.48 18.3, 238.58 -1.61 M304.6 50.48 C285.49 33.87, 266.38 17.26, 244.97 -1.35 M304.6 50.48 C289.61 37.45, 274.62 24.42, 244.97 -1.35 M310.99 50.74 C293.02 35.12, 275.04 19.49, 251.37 -1.09 M310.99 50.74 C294.63 36.52, 278.26 22.29, 251.37 -1.09 M317.39 51 C301.26 36.99, 285.14 22.97, 257.01 -1.48 M317.39 51 C303.62 39.04, 289.86 27.07, 257.01 -1.48 M323.03 50.61 C304.92 34.86, 286.8 19.11, 263.41 -1.22 M323.03 50.61 C310 39.28, 296.96 27.94, 263.41 -1.22 M329.43 50.87 C309.28 33.35, 289.12 15.83, 269.05 -1.61 M329.43 50.87 C309.88 33.88, 290.33 16.88, 269.05 -1.61 M335.07 50.48 C323.02 40, 310.97 29.53, 275.45 -1.35 M335.07 50.48 C316.95 34.73, 298.83 18.97, 275.45 -1.35 M341.47 50.74 C319.75 31.85, 298.02 12.97, 281.85 -1.09 M341.47 50.74 C322.67 34.39, 303.87 18.05, 281.85 -1.09 M347.87 51 C325.27 31.36, 302.67 11.71, 287.49 -1.48 M347.87 51 C334.43 39.32, 321 27.64, 287.49 -1.48 M353.51 50.61 C331.39 31.37, 309.26 12.14, 293.89 -1.22 M353.51 50.61 C334.99 34.51, 316.47 18.41, 293.89 -1.22 M359.91 50.87 C337.74 31.6, 315.58 12.33, 299.53 -1.62 M359.91 50.87 C335.88 29.98, 311.85 9.09, 299.53 -1.62 M365.55 50.47 C345.57 33.1, 325.58 15.73, 305.93 -1.36 M365.55 50.47 C344.76 32.4, 323.97 14.32, 305.93 -1.36 M371.95 50.73 C354.29 35.38, 336.63 20.03, 312.33 -1.09 M371.95 50.73 C348.99 30.77, 326.03 10.81, 312.33 -1.09 M378.35 51 C365.88 40.15, 353.41 29.31, 317.97 -1.49 M378.35 51 C366.26 40.49, 354.18 29.98, 317.97 -1.49 M383.99 50.6 C369.34 37.86, 354.69 25.13, 324.37 -1.23 M383.99 50.6 C367.89 36.61, 351.8 22.61, 324.37 -1.23 M390.39 50.86 C372.05 34.92, 353.7 18.97, 330.01 -1.62 M390.39 50.86 C368.26 31.63, 346.13 12.39, 330.01 -1.62 M396.03 50.47 C380.01 36.54, 363.98 22.6, 336.41 -1.36 M396.03 50.47 C379.95 36.48, 363.86 22.5, 336.41 -1.36 M402.43 50.73 C383.69 34.44, 364.94 18.14, 342.81 -1.1 M402.43 50.73 C385.69 36.18, 368.96 21.63, 342.81 -1.1 M408.83 50.99 C385.45 30.67, 362.08 10.35, 348.45 -1.49 M408.83 50.99 C388.71 33.5, 368.6 16.02, 348.45 -1.49 M414.47 50.6 C396.92 35.34, 379.37 20.08, 354.85 -1.23 M414.47 50.6 C396.17 34.69, 377.87 18.78, 354.85 -1.23 M420.87 50.86 C397.24 30.32, 373.61 9.78, 360.49 -1.63 M420.87 50.86 C400.35 33.02, 379.83 15.18, 360.49 -1.63 M426.51 50.46 C410.49 36.53, 394.46 22.6, 366.89 -1.37 M426.51 50.46 C406.21 32.81, 385.9 15.16, 366.89 -1.37 M432.91 50.72 C418.56 38.25, 404.22 25.78, 373.29 -1.1 M432.91 50.72 C414.97 35.13, 397.04 19.54, 373.29 -1.1 M439.31 50.99 C425.35 38.85, 411.39 26.72, 378.93 -1.5 M439.31 50.99 C426.74 40.06, 414.16 29.13, 378.93 -1.5 M444.95 50.59 C429.27 36.96, 413.59 23.33, 385.33 -1.24 M444.95 50.59 C423.58 32.01, 402.21 13.43, 385.33 -1.24 M451.35 50.85 C430.58 32.8, 409.81 14.74, 390.97 -1.63 M451.35 50.85 C435.17 36.79, 419 22.73, 390.97 -1.63 M456.99 50.46 C435.81 32.04, 414.62 13.63, 397.37 -1.37 M456.99 50.46 C433.96 30.44, 410.93 10.42, 397.37 -1.37 M463.39 50.72 C443.21 33.18, 423.03 15.64, 403.77 -1.11 M463.39 50.72 C450.94 39.9, 438.5 29.08, 403.77 -1.11 M469.79 50.98 C446.66 30.88, 423.53 10.77, 409.41 -1.5 M469.79 50.98 C446.3 30.56, 422.82 10.15, 409.41 -1.5 M475.43 50.59 C456.69 34.3, 437.95 18.01, 415.81 -1.24 M475.43 50.59 C460.46 37.57, 445.48 24.55, 415.81 -1.24 M481.83 50.85 C459.14 31.13, 436.46 11.41, 422.21 -0.98 M481.83 50.85 C463.78 35.16, 445.73 19.47, 422.21 -0.98 M487.47 50.45 C467.18 32.81, 446.89 15.18, 427.85 -1.38 M487.47 50.45 C466.8 32.48, 446.12 14.51, 427.85 -1.38 M493.87 50.71 C472.96 32.54, 452.06 14.37, 434.25 -1.11 M493.87 50.71 C470.34 30.26, 446.8 9.8, 434.25 -1.11 M500.27 50.98 C484.94 37.65, 469.61 24.33, 439.89 -1.51 M500.27 50.98 C477.41 31.11, 454.56 11.24, 439.89 -1.51 M505.91 50.58 C490.09 36.83, 474.27 23.08, 446.29 -1.25 M505.91 50.58 C490.2 36.93, 474.49 23.27, 446.29 -1.25 M512.31 50.84 C496.74 37.31, 481.18 23.78, 452.69 -0.99 M512.31 50.84 C490.81 32.16, 469.32 13.47, 452.69 -0.99 M517.95 50.45 C502.15 36.71, 486.35 22.97, 458.33 -1.38 M517.95 50.45 C503.71 38.07, 489.47 25.69, 458.33 -1.38 M524.35 50.71 C504.27 33.25, 484.18 15.79, 464.73 -1.12 M524.35 50.71 C510.14 38.36, 495.94 26.01, 464.73 -1.12 M530.75 50.97 C515.1 37.37, 499.46 23.77, 470.37 -1.51 M530.75 50.97 C507.69 30.93, 484.64 10.89, 470.37 -1.51 M536.39 50.58 C522.98 38.92, 509.57 27.26, 476.77 -1.25 M536.39 50.58 C519.2 35.63, 502.01 20.69, 476.77 -1.25 M542.79 50.84 C523.38 33.97, 503.98 17.1, 483.17 -0.99 M542.79 50.84 C525.81 36.08, 508.83 21.32, 483.17 -0.99 M548.43 50.44 C534.27 38.13, 520.1 25.82, 488.81 -1.39 M548.43 50.44 C529.43 33.93, 510.43 17.41, 488.81 -1.39 M554.83 50.7 C536.29 34.59, 517.75 18.47, 495.21 -1.12 M554.83 50.7 C538.67 36.65, 522.5 22.6, 495.21 -1.12 M561.23 50.97 C545.77 37.53, 530.31 24.09, 500.85 -1.52 M561.23 50.97 C545.02 36.87, 528.81 22.78, 500.85 -1.52 M566.87 50.57 C553.09 38.59, 539.31 26.61, 507.25 -1.26 M566.87 50.57 C543.28 30.06, 519.69 9.56, 507.25 -1.26 M573.27 50.83 C553.58 33.72, 533.9 16.61, 513.65 -1 M573.27 50.83 C560.86 40.05, 548.45 29.26, 513.65 -1 M578.91 50.44 C562.8 36.43, 546.69 22.43, 519.29 -1.39 M578.91 50.44 C564.33 37.77, 549.75 25.09, 519.29 -1.39 M585.31 50.7 C568.69 36.26, 552.08 21.81, 525.69 -1.13 M585.31 50.7 C565.08 33.12, 544.86 15.54, 525.69 -1.13 M591.71 50.96 C568.69 30.95, 545.67 10.94, 531.33 -1.52 M591.71 50.96 C571.49 33.38, 551.27 15.81, 531.33 -1.52 M597.35 50.57 C580.12 35.59, 562.9 20.62, 537.73 -1.26 M597.35 50.57 C573.81 30.11, 550.28 9.65, 537.73 -1.26 M603.75 50.83 C586.7 36.01, 569.65 21.18, 544.12 -1 M603.75 50.83 C584.94 34.48, 566.14 18.14, 544.12 -1 M609.39 50.43 C590.49 34, 571.58 17.57, 549.77 -1.39 M609.39 50.43 C595.15 38.05, 580.91 25.67, 549.77 -1.39 M615.79 50.7 C599.39 36.44, 583 22.19, 556.17 -1.13 M615.79 50.7 C593.98 31.74, 572.18 12.79, 556.17 -1.13 M622.19 50.96 C604.8 35.84, 587.41 20.72, 561.81 -1.53 M622.19 50.96 C606.07 36.95, 589.95 22.94, 561.81 -1.53 M627.83 50.56 C615.45 39.81, 603.08 29.05, 568.21 -1.27 M627.83 50.56 C604.16 29.99, 580.5 9.42, 568.21 -1.27 M634.23 50.82 C616.61 35.51, 599 20.2, 574.6 -1.01 M634.23 50.82 C621.96 40.16, 609.7 29.5, 574.6 -1.01 M639.87 50.43 C621.29 34.28, 602.71 18.12, 580.25 -1.4 M639.87 50.43 C624.88 37.4, 609.9 24.37, 580.25 -1.4 M646.27 50.69 C634.24 40.24, 622.22 29.78, 586.65 -1.14 M646.27 50.69 C627.61 34.47, 608.95 18.25, 586.65 -1.14 M652.67 50.95 C629.47 30.79, 606.28 10.63, 592.29 -1.53 M652.67 50.95 C634.4 35.07, 616.14 19.2, 592.29 -1.53 M658.31 50.56 C644.12 38.22, 629.93 25.89, 598.69 -1.27 M658.31 50.56 C635.78 30.97, 613.24 11.38, 598.69 -1.27 M664.71 50.82 C641.43 30.58, 618.15 10.35, 605.08 -1.01 M664.71 50.82 C649.49 37.59, 634.28 24.37, 605.08 -1.01 M670.35 50.42 C658.18 39.84, 646 29.26, 610.73 -1.4 M670.35 50.42 C651.21 33.79, 632.07 17.15, 610.73 -1.4 M676.75 50.69 C660.95 36.96, 645.16 23.23, 617.12 -1.14 M676.75 50.69 C656.15 32.78, 635.56 14.88, 617.12 -1.14 M683.14 50.95 C666.91 36.83, 650.67 22.72, 622.77 -1.54 M683.14 50.95 C659.36 30.27, 635.58 9.6, 622.77 -1.54 M688.79 50.55 C670.27 34.46, 651.76 18.36, 629.17 -1.28 M688.79 50.55 C668.49 32.91, 648.19 15.27, 629.17 -1.28 M695.19 50.81 C673.15 31.66, 651.11 12.5, 635.56 -1.01 M695.19 50.81 C672.56 31.15, 649.94 11.48, 635.56 -1.01 M700.83 50.42 C677.03 29.73, 653.24 9.05, 641.21 -1.41 M700.83 50.42 C680.63 32.86, 660.43 15.3, 641.21 -1.41 M707.23 50.68 C694.56 39.67, 681.89 28.66, 647.6 -1.15 M707.23 50.68 C683.86 30.37, 660.49 10.06, 647.6 -1.15 M713.62 50.94 C691.21 31.46, 668.8 11.98, 653.25 -1.54 M713.62 50.94 C691.26 31.5, 668.9 12.06, 653.25 -1.54 M719.27 50.55 C703.03 36.43, 686.8 22.32, 659.65 -1.28 M719.27 50.55 C702.78 36.21, 686.29 21.88, 659.65 -1.28 M725.67 50.81 C711.6 38.58, 697.53 26.35, 666.04 -1.02 M725.67 50.81 C702.05 30.28, 678.43 9.75, 666.04 -1.02 M731.31 50.41 C707.89 30.05, 684.46 9.69, 671.69 -1.41 M731.31 50.41 C718.78 39.52, 706.24 28.63, 671.69 -1.41 M737.71 50.68 C715.55 31.42, 693.4 12.16, 678.08 -1.15 M737.71 50.68 C719.32 34.7, 700.94 18.72, 678.08 -1.15 M744.1 50.94 C720.77 30.66, 697.44 10.37, 683.73 -1.55 M744.1 50.94 C725.95 35.16, 707.8 19.38, 683.73 -1.55 M749.75 50.54 C730.39 33.71, 711.03 16.88, 690.12 -1.29 M749.75 50.54 C730.04 33.41, 710.33 16.28, 690.12 -1.29 M756.14 50.8 C742.18 38.66, 728.21 26.52, 696.52 -1.02 M756.14 50.8 C733.07 30.74, 709.99 10.68, 696.52 -1.02 M761.79 50.41 C749.21 39.48, 736.63 28.54, 702.17 -1.42 M761.79 50.41 C748.82 39.14, 735.85 27.86, 702.17 -1.42 M768.19 50.67 C751.12 35.84, 734.05 21, 708.56 -1.16 M768.19 50.67 C753.88 38.24, 739.58 25.81, 708.56 -1.16 M774.58 50.93 C755.59 34.42, 736.6 17.91, 714.21 -1.55 M774.58 50.93 C759.17 37.53, 743.75 24.13, 714.21 -1.55 M780.23 50.54 C764.67 37.01, 749.11 23.49, 720.6 -1.29 M780.23 50.54 C758.72 31.84, 737.21 13.14, 720.6 -1.29 M786.62 50.8 C769.42 35.84, 752.22 20.89, 727 -1.03 M786.62 50.8 C771.05 37.26, 755.47 23.72, 727 -1.03 M792.27 50.4 C777.61 37.66, 762.94 24.91, 732.65 -1.42 M792.27 50.4 C769.45 30.57, 746.64 10.74, 732.65 -1.42 M798.66 50.67 C777.52 32.28, 756.37 13.9, 739.04 -1.16 M798.66 50.67 C775.78 30.77, 752.89 10.88, 739.04 -1.16 M805.06 50.93 C787.12 35.33, 769.18 19.73, 744.69 -1.56 M805.06 50.93 C788.78 36.78, 772.5 22.62, 744.69 -1.56 M810.71 50.53 C792.61 34.8, 774.51 19.07, 751.08 -1.3 M810.71 50.53 C792.65 34.84, 774.59 19.14, 751.08 -1.3 M817.1 50.79 C802.81 38.37, 788.52 25.95, 757.48 -1.03 M817.1 50.79 C798.19 34.36, 779.28 17.92, 757.48 -1.03 M822.75 50.4 C805.19 35.14, 787.64 19.88, 763.12 -1.43 M822.75 50.4 C809.07 38.51, 795.4 26.63, 763.12 -1.43 M829.14 50.66 C813.22 36.82, 797.3 22.98, 769.52 -1.17 M829.14 50.66 C808.16 32.42, 787.18 14.18, 769.52 -1.17 M835.54 50.92 C820.13 37.53, 804.72 24.13, 775.17 -1.56 M835.54 50.92 C817.09 34.88, 798.64 18.85, 775.17 -1.56 M841.19 50.53 C820.81 32.81, 800.43 15.1, 781.56 -1.3 M841.19 50.53 C821.4 33.33, 801.62 16.14, 781.56 -1.3 M847.58 50.79 C830.72 36.13, 813.86 21.47, 787.96 -1.04 M847.58 50.79 C835.35 40.16, 823.13 29.53, 787.96 -1.04 M853.23 50.39 C829.68 29.93, 806.13 9.46, 793.6 -1.43 M853.23 50.39 C832.6 32.47, 811.98 14.54, 793.6 -1.43 M859.62 50.66 C845.15 38.08, 830.68 25.5, 800 -1.17 M859.62 50.66 C839.79 33.41, 819.95 16.17, 800 -1.17 M866.02 50.92 C846.31 33.79, 826.61 16.65, 805.64 -1.57 M866.02 50.92 C853.06 39.65, 840.1 28.38, 805.64 -1.57 M871.66 50.52 C849.65 31.39, 827.64 12.25, 812.04 -1.31 M871.66 50.52 C858.29 38.89, 844.91 27.26, 812.04 -1.31 M878.06 50.78 C865.85 40.16, 853.63 29.54, 818.44 -1.04 M878.06 50.78 C860.78 35.76, 843.5 20.74, 818.44 -1.04 M883.71 50.39 C867.89 36.64, 852.07 22.89, 824.08 -1.44 M883.71 50.39 C862.99 32.38, 842.27 14.37, 824.08 -1.44 M890.1 50.65 C874.14 36.77, 858.17 22.89, 830.48 -1.18 M890.1 50.65 C874.94 37.47, 859.78 24.3, 830.48 -1.18 M896.5 50.91 C878.22 35.02, 859.94 19.13, 836.12 -1.57 M896.5 50.91 C878.36 35.14, 860.22 19.37, 836.12 -1.57 M902.14 50.52 C882.99 33.87, 863.84 17.22, 842.52 -1.31 M902.14 50.52 C882.94 33.83, 863.74 17.13, 842.52 -1.31 M908.54 50.78 C895.29 39.26, 882.05 27.75, 848.92 -1.05 M908.54 50.78 C895.83 39.73, 883.12 28.68, 848.92 -1.05 M914.19 50.39 C893.9 32.75, 873.62 15.12, 854.56 -1.44 M914.19 50.39 C899.95 38.01, 885.72 25.64, 854.56 -1.44 M920.58 50.65 C900.74 33.4, 880.9 16.15, 860.96 -1.18 M920.58 50.65 C899.91 32.68, 879.24 14.71, 860.96 -1.18 M926.98 50.91 C910.79 36.83, 894.59 22.76, 866.6 -1.58 M926.98 50.91 C910.02 36.17, 893.07 21.43, 866.6 -1.58 M932.62 50.51 C913.99 34.31, 895.35 18.11, 873 -1.32 M932.62 50.51 C915.14 35.32, 897.66 20.12, 873 -1.32 M939.02 50.78 C926.04 39.49, 913.06 28.21, 879.4 -1.05 M939.02 50.78 C923.74 37.49, 908.45 24.2, 879.4 -1.05 M944.66 50.38 C932.24 39.58, 919.81 28.78, 885.04 -1.45 M944.66 50.38 C922.23 30.88, 899.8 11.38, 885.04 -1.45 M951.06 50.64 C934.97 36.65, 918.87 22.66, 891.44 -1.19 M951.06 50.64 C932.91 34.86, 914.76 19.08, 891.44 -1.19 M957.46 50.9 C943.23 38.53, 929 26.16, 897.08 -1.58 M957.46 50.9 C942.32 37.75, 927.19 24.59, 897.08 -1.58 M963.1 50.51 C946.72 36.27, 930.35 22.03, 903.48 -1.32 M963.1 50.51 C945.49 35.19, 927.87 19.88, 903.48 -1.32 M969.5 50.77 C946.91 31.13, 924.32 11.5, 909.88 -1.06 M969.5 50.77 C951.46 35.09, 933.43 19.41, 909.88 -1.06 M972.13 47.75 C957.94 35.42, 943.74 23.08, 915.52 -1.45 M972.13 47.75 C959.04 36.38, 945.96 25, 915.52 -1.45 M972.49 42.76 C952.72 25.59, 932.96 8.41, 921.92 -1.19 M972.49 42.76 C959.89 31.82, 947.3 20.87, 921.92 -1.19 M972.09 37.12 C954.93 22.21, 937.78 7.29, 927.56 -1.59 M972.09 37.12 C961.21 27.66, 950.33 18.21, 927.56 -1.59 M972.45 32.13 C957.31 18.97, 942.17 5.81, 933.96 -1.32 M972.45 32.13 C959.41 20.8, 946.38 9.47, 933.96 -1.32 M972.06 26.49 C964.62 20.02, 957.18 13.56, 940.36 -1.06 M972.06 26.49 C959.4 15.49, 946.75 4.49, 940.36 -1.06 M972.42 21.5 C965.1 15.14, 957.78 8.78, 946 -1.46 M972.42 21.5 C963.13 13.44, 953.85 5.37, 946 -1.46 M972.02 15.86 C965.67 10.34, 959.32 4.82, 952.4 -1.2 M972.02 15.86 C966.31 10.89, 960.59 5.93, 952.4 -1.2 M972.38 10.87 C968.06 7.12, 963.74 3.37, 958.04 -1.59 M972.38 10.87 C966.67 5.91, 960.96 0.95, 958.04 -1.59 M971.99 5.23 C969.37 2.96, 966.76 0.69, 964.44 -1.33 M971.99 5.23 C970.12 3.61, 968.26 1.99, 964.44 -1.33" stroke="#fd7e14" stroke-width="0.5" fill="none"></path><path d="M0 0 C228.65 0, 457.29 0, 969.59 0 M0 0 C338.08 0, 676.15 0, 969.59 0 M969.59 0 C969.59 11.87, 969.59 23.73, 969.59 50.7 M969.59 0 C969.59 15.66, 969.59 31.32, 969.59 50.7 M969.59 50.7 C596.58 50.7, 223.58 50.7, 0 50.7 M969.59 50.7 C587.16 50.7, 204.72 50.7, 0 50.7 M0 50.7 C0 32.08, 0 13.45, 0 0 M0 50.7 C0 31.35, 0 11.99, 0 0" stroke="#000000" stroke-width="1" fill="none"></path></g><g stroke-linecap="round" transform="translate(10 10) rotate(0 126 159)"><path d="M0 0 C74.02 0, 148.04 0, 252 0 M0 0 C86.14 0, 172.27 0, 252 0 M252 0 C252 93.07, 252 186.14, 252 318 M252 0 C252 87.39, 252 174.77, 252 318 M252 318 C201.02 318, 150.03 318, 0 318 M252 318 C153.26 318, 54.52 318, 0 318 M0 318 C0 201.96, 0 85.93, 0 0 M0 318 C0 195.35, 0 72.7, 0 0" stroke="#000000" stroke-width="1" fill="none"></path></g><g transform="translate(72 15) rotate(0 64 154)"><text x="64" y="35" font-family="Cascadia, Segoe UI Emoji" font-size="36px" fill="#000000" text-anchor="middle" style="white-space: pre;" direction="ltr">Années</text><text x="64" y="79" font-family="Cascadia, Segoe UI Emoji" font-size="36px" fill="#000000" text-anchor="middle" style="white-space: pre;" direction="ltr">1992</text><text x="64" y="123" font-family="Cascadia, Segoe UI Emoji" font-size="36px" fill="#000000" text-anchor="middle" style="white-space: pre;" direction="ltr">1997</text><text x="64" y="167" font-family="Cascadia, Segoe UI Emoji" font-size="36px" fill="#000000" text-anchor="middle" style="white-space: pre;" direction="ltr">2002</text><text x="64" y="211" font-family="Cascadia, Segoe UI Emoji" font-size="36px" fill="#000000" text-anchor="middle" style="white-space: pre;" direction="ltr">2007</text><text x="64" y="255" font-family="Cascadia, Segoe UI Emoji" font-size="36px" fill="#000000" text-anchor="middle" style="white-space: pre;" direction="ltr">2017</text><text x="64" y="299" font-family="Cascadia, Segoe UI Emoji" font-size="36px" fill="#000000" text-anchor="middle" style="white-space: pre;" direction="ltr">2022</text></g><g stroke-linecap="round" transform="translate(262.596366151618 10.143907190097252) rotate(0 358.5 159)"><path d="M0 0 C174.56 0, 349.12 0, 717 0 M0 0 C177.21 0, 354.42 0, 717 0 M717 0 C717 109.42, 717 218.83, 717 318 M717 0 C717 73.51, 717 147.02, 717 318 M717 318 C562.58 318, 408.17 318, 0 318 M717 318 C462.93 318, 208.87 318, 0 318 M0 318 C0 238.11, 0 158.21, 0 0 M0 318 C0 231.45, 0 144.91, 0 0" stroke="#000000" stroke-width="1" fill="none"></path></g><g transform="translate(345.596366151618 15.143907190097252) rotate(0 275.5 154)"><text x="275.5" y="35" font-family="Cascadia, Segoe UI Emoji" font-size="36px" fill="#000000" text-anchor="middle" style="white-space: pre;" direction="ltr">Trafic Internet global</text><text x="275.5" y="79" font-family="Cascadia, Segoe UI Emoji" font-size="36px" fill="#000000" text-anchor="middle" style="white-space: pre;" direction="ltr">100 gigaoctets/jour</text><text x="275.5" y="123" font-family="Cascadia, Segoe UI Emoji" font-size="36px" fill="#000000" text-anchor="middle" style="white-space: pre;" direction="ltr">100 gigaoctets/heure</text><text x="275.5" y="167" font-family="Cascadia, Segoe UI Emoji" font-size="36px" fill="#000000" text-anchor="middle" style="white-space: pre;" direction="ltr">100 gigaoctets/seconde</text><text x="275.5" y="211" font-family="Cascadia, Segoe UI Emoji" font-size="36px" fill="#000000" text-anchor="middle" style="white-space: pre;" direction="ltr">2 000 gigaoctet/seconde</text><text x="275.5" y="255" font-family="Cascadia, Segoe UI Emoji" font-size="36px" fill="#000000" text-anchor="middle" style="white-space: pre;" direction="ltr">46 600 gigaoctets/seconde</text><text x="275.5" y="299" font-family="Cascadia, Segoe UI Emoji" font-size="36px" fill="#000000" text-anchor="middle" style="white-space: pre;" direction="ltr">150 700 gigaoctets/seconde</text></g><g stroke-linecap="round"><g transform="translate(10.360688110348974 283.5841162482618) rotate(0 484.11515868751405 -2.6004395274172794)"><path d="M0 0 C161.37 -0.87, 806.86 -4.33, 968.23 -5.2 M0 0 C161.37 -0.87, 806.86 -4.33, 968.23 -5.2" stroke="#000000" stroke-width="1" fill="none"></path></g></g><g stroke-linecap="round"><g transform="translate(10.360688110348974 237.53141003925657) rotate(0 484.11515868751405 -2.6004395274172794)"><path d="M0 0 C161.37 -0.87, 806.86 -4.33, 968.23 -5.2 M0 0 C161.37 -0.87, 806.86 -4.33, 968.23 -5.2" stroke="#000000" stroke-width="1" fill="none"></path></g></g><g stroke-linecap="round"><g transform="translate(10.360688110348974 194.5335052246828) rotate(0 484.11515868751405 -2.6004395274172794)"><path d="M0 0 C161.37 -0.87, 806.86 -4.33, 968.23 -5.2 M0 0 C161.37 -0.87, 806.86 -4.33, 968.23 -5.2" stroke="#000000" stroke-width="1" fill="none"></path></g></g><g stroke-linecap="round"><g transform="translate(10.360688110348974 151.42661386246198) rotate(0 484.11515868751405 -2.6004395274172794)"><path d="M0 0 C161.37 -0.87, 806.86 -4.33, 968.23 -5.2 M0 0 C161.37 -0.87, 806.86 -4.33, 968.23 -5.2" stroke="#000000" stroke-width="1" fill="none"></path></g></g><g stroke-linecap="round"><g transform="translate(10.360688110348974 105.23536351039797) rotate(0 484.11515868751405 -2.6004395274172794)"><path d="M0 0 C161.37 -0.87, 806.86 -4.33, 968.23 -5.2 M0 0 C161.37 -0.87, 806.86 -4.33, 968.23 -5.2" stroke="#000000" stroke-width="1" fill="none"></path></g></g><g transform="translate(276.83311533138885 346.0324619250109) rotate(0 181.5 17)"><text x="363" y="27" font-family="Cascadia, Segoe UI Emoji" font-size="28px" fill="#000000" text-anchor="end" style="white-space: pre;" direction="ltr">Trafic Internet global</text></g></svg>