<svg version="1.1" xmlns="http://www.w3.org/2000/svg" viewBox="0 0 764.441832085859 821.7968245875317" width="1528.883664171718" height="1643.5936491750633">
  <!-- svg-source:excalidraw -->
  
  <defs>
    <style>
      @font-face {
        font-family: "Virgil";
        src: url("https://excalidraw.com/Virgil.woff2");
      }
      @font-face {
        font-family: "Cascadia";
        src: url("https://excalidraw.com/Cascadia.woff2");
      }
    </style>
  </defs>
  <rect x="0" y="0" width="764.441832085859" height="821.7968245875317" fill="#ffffff"></rect><g stroke-linecap="round" transform="translate(144.9290845989408 487.903574749183) rotate(0 34.423139575403866 84.84086925655089)"><path d="M0 0 C0 0, 0 0, 0 0 M0 0 C0 0, 0 0, 0 0 M-0.42 6.78 C1.9 5.18, 3.15 3.76, 4.36 -0.32 M-0.61 6.1 C1.33 4.05, 3.26 2.62, 4.91 0.21 M-0.15 12.62 C2.07 7.85, 7.39 5.93, 11.5 1.19 M0.29 12.15 C3.81 6.97, 8.41 3.19, 10.25 0.31 M0.66 18.47 C4.72 12.03, 10.78 6.02, 17.02 -1.56 M-0.82 18.23 C3.78 14.37, 7.61 8.36, 15.64 -0.18 M-0.46 25.23 C7.22 16.8, 10.87 11.9, 20.77 -0.26 M-0.25 23.18 C5.77 18.72, 11.84 11.03, 22.18 -0.65 M1.29 29.28 C7.76 21.03, 14.65 13.1, 27.49 -0.66 M0.79 30.19 C6.98 22.94, 13.24 15.24, 25.29 -0.32 M0.49 35.21 C8.75 26.87, 17.13 18.38, 31.82 -0.93 M-0.74 37.71 C11.34 22.18, 22.65 10.17, 31.42 -0.01 M1.16 40.57 C9.6 32.83, 16.3 23.34, 34.97 0.96 M-0.56 42.7 C14.72 27.06, 29.08 9.59, 37.87 0.81 M0.57 48.29 C10.27 36.96, 23.08 21.11, 43.71 -0.6 M0.08 49.73 C14.33 31.75, 31.05 13.7, 43.16 -1.1 M-0.42 55.75 C11.79 45.1, 22.1 30.46, 46.93 1.5 M0.15 54.6 C18.86 33.12, 37.28 12.1, 46.85 0.14 M-0.87 62.96 C15.89 42.17, 35.41 20.94, 54.6 -0.75 M0.73 61.21 C11.57 47.51, 23.17 34.39, 54.01 0.38 M-1.41 65.61 C18.17 42.61, 39.55 19.41, 58.27 1.82 M0.66 67.18 C13.53 52.84, 26.82 38.1, 59 0.31 M-0.47 71.54 C19.64 52.6, 37.32 29.17, 62.07 -0.22 M-0.25 73 C23.76 46.64, 44.84 20.66, 63.9 0.38 M1.54 81.29 C18.31 59.14, 37.71 36.59, 67.23 1.39 M-0.08 79.14 C14.5 63.5, 26.83 46.64, 68.38 -0.38 M0.53 85.02 C20.13 61.53, 44.06 34.38, 69.8 6.82 M0.95 85.68 C21.39 60.37, 42.44 35.37, 68.81 6.6 M1.24 90.84 C21.89 64.31, 45.43 38.56, 68.93 10.37 M0.29 91.16 C13.72 74.36, 28.13 58.58, 69.89 12.15 M-0.41 97.75 C19.73 77.23, 36.8 56.19, 69.44 19.53 M-1.17 98.24 C26.77 66.71, 52.59 36.73, 68.64 19.14 M-1.53 104.17 C18.51 82.06, 39.47 61.67, 70.87 25.42 M0.05 102.81 C21.41 79.5, 42.43 55.13, 68.75 23.51 M-0.48 108.44 C24.43 79.91, 52.14 50.7, 67.24 31.39 M-0.85 109.11 C19.92 86.75, 42.08 61.5, 67.8 31.48 M1.44 113.8 C19.98 92.18, 39.76 68.15, 69.42 37.88 M0.81 115.37 C20.85 91.88, 42.2 67.4, 68.95 37.08 M0.54 120.68 C25.68 90.06, 54.23 61.28, 69.6 42.81 M-0.98 122.68 C19.6 97.57, 39.82 75.49, 68.82 43.09 M1.04 127.65 C25.85 98.33, 51.42 69.48, 67.67 50.47 M-1.16 128.58 C27.17 96.51, 55.15 65.34, 69.18 48.66 M-1.11 135.95 C24.4 102.89, 51.59 71.75, 70.96 56.09 M-0.47 134.25 C25.61 103.71, 53.75 74.32, 68.17 54.39 M1.52 141.99 C25.24 110.36, 52.45 80.71, 70.06 62.29 M-0.3 139.58 C24.77 114.2, 46.58 86.86, 69.39 61.5 M2.21 146.34 C27.6 115.53, 54.02 85.32, 69.14 68.12 M1.05 146.82 C25.64 117.22, 51.86 87.4, 69.66 67.45 M0.54 153.99 C26.83 123.81, 53.41 92.22, 70.44 73.3 M0.26 151.46 C17.77 130.73, 36.9 109.63, 68.88 72.8 M0.82 159.34 C19.75 131.68, 44.1 109.18, 68.65 79.2 M0.65 157.84 C14.24 141.39, 30.53 124.04, 67.74 78.82 M-0.21 162.68 C20.39 137.88, 41.25 115.47, 70.67 85.35 M-0.61 164.26 C18.65 142.87, 38.72 120.78, 68.91 84.66 M-0.92 170.01 C18.03 151.65, 33.96 128.94, 67.38 89.97 M1.3 169.41 C18.05 149.54, 37.55 130.54, 68.15 92.45 M5.56 171.68 C22.7 152.15, 37.59 133.47, 68 98.91 M6.52 169.65 C19.84 153.56, 35.45 137.33, 70.07 96.92 M11.26 168.53 C25.01 155.83, 34.74 141.66, 68.59 101.97 M11.86 169.78 C33.29 144.88, 54.86 117.5, 67.96 104.26 M14.3 169.27 C29.51 154.99, 43.62 141.94, 70.4 109.84 M17.12 171.04 C35.44 149.13, 54.51 125.75, 69.58 109.81 M20.64 168.8 C35.65 151.51, 52.47 135.21, 67.61 114.62 M22.14 170.02 C36.24 153.57, 48.84 138.91, 68.23 115.09 M28.57 168.41 C36.1 159.45, 45.26 148.52, 67.18 122.34 M26.75 169.56 C38.42 157.27, 49.73 143.42, 67.97 123.02 M31.72 168.05 C41.04 161.04, 51.29 150.44, 71.12 125.94 M33.09 169.58 C45.98 153.43, 60.71 138.45, 69.3 127.46 M35.55 170.61 C46.51 159.77, 57.24 149.36, 69.05 133.52 M37.52 170 C47.66 158.06, 57.89 145.27, 69.09 134.17 M44.37 170.12 C54.42 158.81, 62.41 146.37, 68.52 141.34 M42.97 169.57 C50.17 162.66, 55.86 154.54, 68.21 140.36 M49.81 172.04 C54.58 165.73, 59.15 158.43, 70.77 146.34 M48.84 170.81 C54.23 162.7, 61.24 156.38, 68.78 145.84 M53.84 169.49 C55.98 164.49, 62.43 161.33, 70.56 150.61 M53.36 170.81 C59.25 163.42, 63.62 158.14, 69.25 152.17 M57.56 171.25 C61.59 166.05, 65.05 163.6, 70.2 158.36 M59.31 170.18 C61.01 167.24, 64.46 163.74, 69.97 158.24 M63.78 170.35 C66.63 167.94, 68.31 165.52, 69.09 164.52 M64.62 169.84 C65.88 168.46, 67.59 166.88, 68.62 164.82" stroke="#228be6" stroke-width="0.5" fill="none"></path><path d="M0.29 0.46 C26.74 -0.82, 53.12 -1.05, 69.31 1.47 M-0.42 0.13 C14.32 0.71, 29.35 -0.45, 68.11 0.98 M69.13 -0.08 C71.27 38.55, 69.31 77.22, 68.36 170.41 M69.11 0.21 C68.48 66.33, 68.26 131.31, 68.61 169.09 M69.19 168.6 C41.54 170.12, 15.88 169.95, -0.05 171.39 M69.7 170.61 C42.53 168.98, 16.72 169.14, -0.29 169.27 M1.16 169.12 C-1.45 119.94, -0.06 69.02, -0.4 -1.39 M-0.19 170.35 C0.92 123.62, 0.52 79.25, -0.44 0.23" stroke="#000000" stroke-width="1" fill="none"></path></g><g stroke-linecap="round" transform="translate(239.59271843130136 440.61522139307266) rotate(0 34.423139575403866 108.48504593460606)"><path d="M0 0 C0 0, 0 0, 0 0 M0 0 C0 0, 0 0, 0 0 M0.12 7.09 C1.78 5.08, 3.62 2.16, 4.3 0.61 M-0.56 6.23 C0.8 4.85, 2.78 3.13, 4.84 0.26 M0.72 11.05 C2.14 10.2, 6.41 6.34, 11.85 1.23 M0.24 11.78 C3.24 8.27, 7.61 3.41, 10.98 0.46 M-0.1 17.44 C3.4 13.85, 7.32 12.02, 13.73 -0.66 M-0.34 18.31 C4.27 13.76, 6.74 9.49, 15.12 -0.02 M1.42 25.66 C7.34 14.64, 16.83 5.31, 21.07 -0.89 M-0.63 24 C6.13 19.06, 9.63 13.75, 20.68 -0.48 M-1.2 31.31 C5.23 23.37, 11.97 15.84, 25.3 -0.39 M-0.29 30.49 C8.46 20.42, 16.73 11, 25.64 0.05 M-1.92 36.92 C8.62 26.35, 18.99 16.75, 31.07 1.26 M0.57 36.81 C9.78 23.62, 22.52 10.93, 31.98 -0.94 M-1.82 43.74 C8.13 32.5, 16.31 20.81, 37.58 1.98 M0.31 42.71 C10.28 32.47, 18.42 22.44, 37.43 -0.07 M-0.75 47.75 C12.57 35.77, 21.35 23.47, 42.06 0.87 M0.69 48.01 C9.17 39.05, 17.57 28.2, 41.56 -1.04 M1.46 56.12 C16.01 40.83, 26.55 22.47, 48.79 2.02 M0.31 54.49 C12.15 40.63, 24.42 26.14, 47.43 0.56 M2.01 58.98 C16.43 44.05, 30.34 28.7, 52.57 -1.8 M0.26 61.03 C16.85 41.07, 34.08 22.34, 53.7 0.31 M-2 65.94 C19.98 42.49, 41.75 18.11, 59.77 -1.34 M-0.43 67.43 C12.2 53.46, 24.36 40.37, 58.26 0.16 M-1.31 74.04 C24.27 46.79, 45.37 19.02, 63.77 0.86 M0.14 73.84 C16.21 53.63, 32.66 35.27, 64.37 -0.51 M1.78 79.81 C26.26 50.96, 50.36 19.02, 70 -1.78 M-0.37 80.14 C21.81 53.49, 42.73 29.11, 68.24 0.28 M0.26 83.73 C25.29 58.61, 46.76 30.72, 70.19 5.89 M0.91 85.75 C25.48 55.69, 50.4 24.93, 69.97 6.24 M-0.58 90 C24.51 61.43, 50.37 35.13, 67.08 10.44 M-0.27 90.84 C23.3 63.34, 47.9 38.08, 68.86 11.86 M-0.33 99.01 C17.03 78.42, 33.93 59.97, 69.57 20.42 M0.16 98.12 C22.34 71.55, 46.02 46.36, 69.19 18.35 M0.84 103.37 C25.65 77.17, 52.08 48.35, 70.22 24.33 M-0.53 104.29 C25.57 75.28, 50.65 45.03, 68.31 25 M-1.55 107.91 C15.16 92.04, 31.21 72.9, 69.53 30.65 M-0.88 109.37 C22.81 85.74, 43.63 58.25, 69.62 30.58 M-1.44 114.16 C14.37 97.04, 27.79 82.97, 70.77 36.31 M0.14 114.58 C14.71 98.48, 28.31 82.31, 69.97 37.18 M-1.22 120.13 C14.74 103.65, 32.51 86.45, 69.04 42.45 M0.78 121.48 C18.17 99.83, 38.69 77.21, 69.33 43.34 M-0.91 128.77 C16.23 108.68, 33.8 86.98, 70.05 50.94 M0.03 127.85 C13.13 113.3, 27.1 97.38, 68.23 49.95 M2.14 131.99 C24.72 104.25, 49.21 79.02, 70.41 56.33 M0.44 133.01 C19.32 113.24, 39.34 89.3, 68.71 55.58 M1.53 138.67 C17.69 118.94, 35.84 101.6, 69.95 61.91 M-0.88 141.29 C16.84 121.27, 32.57 104.01, 69.17 61.92 M0.63 147.15 C21.07 122.48, 42.07 96.83, 70.53 68.16 M1.11 145.81 C21.22 122.65, 41.03 99.26, 69.87 67.57 M1.62 153 C22.96 128.68, 42.84 104.86, 69.06 72.53 M-0.91 151.68 C20.84 127.68, 42.3 103.33, 68.55 73.26 M0.3 157.45 C18.29 135.75, 41.51 109.81, 68.29 77.94 M-1.2 157.81 C17.32 138.09, 35 116.68, 67.92 79.64 M-1.6 163.5 C19.42 138.56, 42.9 116.88, 69.2 84.74 M-0.02 164.35 C25.59 136.95, 50.59 107.05, 68.51 84.7 M-0.17 171.81 C27.26 141.02, 50.42 109.73, 67.16 90.78 M-0.78 169.99 C14.84 153.98, 31.24 135.07, 69.64 91.17 M1.53 177.29 C21.99 151.44, 43.32 126.65, 70.86 95.84 M-0.5 175.93 C19.17 154.56, 38.63 133.4, 68.86 96.31 M-1.49 184.79 C20.96 158.01, 41.88 133.5, 67.26 105.44 M-0.24 182.9 C26.01 152.35, 49.86 123.21, 69.55 103.12 M-1.37 189.63 C21.18 166.38, 44.84 141.8, 68.46 111.28 M0.4 189.13 C16.57 169.84, 31.32 152.18, 68.43 110.18 M-1.05 193.58 C16.03 176.24, 33.97 154.53, 67.99 115.29 M0.17 195.66 C13.98 177.3, 29.78 158.91, 68.46 115.02 M-2.07 200.89 C22.51 174.12, 45.05 148.13, 69.06 121.61 M-0.91 201.73 C26.72 170.93, 52.77 139.47, 69.73 121.49 M-1.63 206.74 C23.69 183.1, 45.25 158.67, 67.41 129.07 M-0.1 206.67 C14.8 189.5, 30.95 170.78, 68.93 127.67 M0.3 213.06 C20.13 192.61, 40 169.14, 68.33 135.01 M-0.31 213.03 C27.03 181.78, 53.32 152.32, 68.98 134.97 M1.26 219.45 C15.42 200.76, 28.56 184.95, 69.49 139.68 M0.71 218.93 C26.31 189.76, 50.41 161.23, 68.51 140 M8.47 219.22 C28.82 194.61, 47.88 172.2, 69.24 146.3 M7.23 217.4 C21.35 200.78, 36.97 183.7, 68.74 145.93 M11.29 216.45 C33.4 193.48, 56.95 169.58, 66.85 153.08 M12.61 218.91 C30.61 195.84, 50.73 173.46, 68.41 151.93 M18.58 218.38 C33.79 199.5, 52.09 178.54, 69.4 157.67 M17.24 217.05 C30.96 202.29, 43.82 188.23, 69.25 158.97 M23.71 219.75 C35.06 205.73, 46.2 190.56, 68.73 164.92 M22.26 218.3 C33.2 207.26, 43.4 194.1, 69.57 164.99 M28.11 218.46 C43.51 198.57, 62.3 180.61, 68.36 171.42 M27.63 217.04 C41.05 204.07, 53.09 189.67, 67.79 170.77 M34.24 219.41 C41.7 206.17, 52.05 197.59, 67.67 177.44 M33.83 218.77 C45.65 204.32, 56.11 189.3, 69.28 177.26 M37.1 218.19 C46.63 208.05, 58.3 195.34, 70.28 182.99 M37.92 217.18 C49.48 203.9, 61.7 191.37, 69.31 183.05 M45.23 216.87 C52.4 207.2, 60.29 199.98, 70.82 188.27 M43.21 217.3 C49.25 210.79, 56.35 204.24, 68.51 188.13 M48.2 219.7 C53.87 211.89, 59.65 203.69, 67.98 193.44 M49.34 218.62 C56.18 209.61, 65.25 200.35, 68.46 195.12 M53.64 216.93 C61.23 212.69, 64.45 205.69, 67.32 203.15 M53.96 218.2 C59.14 212.09, 64.09 207.95, 69.24 201.06 M58.34 217.54 C61.93 214.69, 65.62 210.87, 69.44 206.62 M59.91 218.53 C62.53 214.37, 67.4 209.41, 68.44 206.91 M64.33 218.56 C65.8 216.35, 67.71 215.31, 68.22 213.34 M65 217.75 C66.58 216.34, 67.64 214.46, 68.9 213.23" stroke="#228be6" stroke-width="0.5" fill="none"></path><path d="M0.46 -0.05 C19.01 -0.56, 39.31 0.37, 70.32 -1.76 M0.13 -0.26 C21.59 0.48, 41.41 -0.44, 69.83 -0.7 M68.77 1.58 C68.43 72.87, 68.05 145.57, 69.48 218.49 M69.03 0.24 C69.93 56.92, 69.27 113.54, 68.33 217.58 M67.76 215.17 C45.54 215.13, 22.09 217.03, 1.7 218.52 M69.78 216.64 C48.42 217.39, 28.63 217.27, -0.41 216.93 M-0.49 215.6 C-1.21 153.27, -1.81 89.53, -1.21 -0.57 M0.58 217.18 C-1.77 160.44, -0.88 103.8, 0.2 -0.2" stroke="#000000" stroke-width="1" fill="none"></path></g><g stroke-linecap="round" transform="translate(334.25635226366194 378.0276948923384) rotate(0 34.423139575403866 139.7788091849732)"><path d="M0 0 C0 0, 0 0, 0 0 M0 0 C0 0, 0 0, 0 0 M0.43 6.88 C1.97 5.13, 2.59 1.71, 5.24 0.1 M-0.43 6.02 C1.15 5.09, 2.39 3.21, 4.89 0.25 M-0.86 11.16 C4.56 9.11, 6.98 6.38, 11.9 0.62 M-0.12 11.45 C2.59 9.8, 3.96 7.51, 11.13 -0.72 M-1.13 18.53 C3.32 14.28, 9.53 6.97, 14.63 -0.66 M-0.25 19.04 C5.76 10.68, 12.05 4.14, 15.27 1.12 M1.84 23.39 C8.15 15.42, 16.13 5.05, 20.44 -1.36 M0.18 24.77 C5.23 18.59, 9.88 13.83, 20.85 -0.46 M0.83 28.73 C7.32 21.21, 14.23 14.53, 25.56 0.36 M0.01 30.93 C6.58 22.68, 13.83 12.66, 26 -0.01 M-0.22 36.89 C7.16 29.67, 15.52 17.94, 33.25 0.83 M-0.32 35.94 C10.41 24.53, 21.61 11.2, 31.05 -0.78 M1.36 41.91 C10.25 30.01, 18.73 19.74, 38.6 -0.69 M0.33 43.31 C11.12 30.23, 22.08 19.25, 36.55 -0.04 M-1.29 49.97 C11.64 33.93, 24.27 21.69, 43.53 -1.8 M-1.03 48.82 C12.16 34.37, 23.45 21.11, 41.62 -0.22 M1.83 56.42 C15.67 37.66, 26.41 25.05, 49.31 -0.66 M0.2 54.06 C11.94 40.78, 23.04 27.6, 47.84 0 M-1.97 62.04 C10.93 48.22, 23.37 34.97, 51.52 0.22 M0.08 61.39 C20.65 37.3, 42.49 12.99, 53.63 0.53 M-1.67 65.99 C17.43 46.37, 35.56 28.91, 56.61 -1.75 M-0.18 67.49 C13.13 52.12, 27.41 36.05, 58.11 0.77 M1.18 74.37 C19.74 50.64, 37.75 28.48, 64.85 -1 M0.98 72.55 C19.33 50.04, 39.5 28.78, 63.47 0.47 M0.3 80.7 C23.38 52.5, 43.45 27.33, 66.83 0.45 M0.62 79.35 C16.97 57.99, 35.58 37.49, 68.89 0.62 M-1.03 86.89 C27.91 53.87, 54.09 24.79, 69.26 7.28 M0.98 84.9 C24.88 55.57, 48.13 29.33, 69.61 6.32 M-1.42 91.53 C17.75 70.46, 39.26 44.15, 67.15 13.03 M-0.59 91.32 C20.81 67.45, 44.47 41.35, 68.57 11.64 M0.92 98.87 C25.53 69.27, 52.28 39.37, 70.47 19.17 M0.04 97.46 C17.6 77.54, 36.43 56.75, 68.39 19.22 M0.03 103.33 C17.75 87.19, 32.76 69.79, 69.13 25.58 M0.96 104.03 C25.55 76.1, 48.9 46.9, 69.8 23.48 M-2.08 109.97 C23.01 84.43, 44.82 57.84, 68.79 31.09 M-0.62 110.71 C23.31 84.62, 43.31 60.85, 68.72 29.68 M-1.08 115.55 C18.83 91.45, 41.85 69.66, 69.2 34.39 M-0.66 115.79 C20.32 91.36, 41.27 68.54, 70.07 35.55 M-1.77 120.73 C18.03 102.21, 37.13 80.35, 68.68 42.39 M-0.41 121.04 C27.15 90.9, 53.65 60.93, 69.57 42.19 M0.21 127.07 C17.46 107.44, 33.16 89.82, 70.51 47.12 M-0.71 127.35 C18.18 107.29, 35.6 87.94, 69.52 49.69 M-1.82 133.55 C19.16 109.43, 42.59 88.62, 70.66 54.3 M-0.8 133.81 C21.42 111.61, 39.4 87.86, 69.91 54.21 M-1.8 141.07 C19.53 116.89, 43.34 91.73, 69.58 59.79 M0.82 140.89 C17.59 120.08, 37.08 99.39, 69.58 61.17 M1.44 145.46 C19.36 124.04, 36.41 104.78, 70.58 66.65 M0.1 146.04 C15.7 127.16, 31.15 110.48, 69.99 66.84 M0.62 153.68 C17.9 132.01, 35.69 112.48, 68.29 73.32 M-0.69 152.55 C25.44 123.82, 51.24 93.52, 69.01 73.22 M-1.58 156.88 C27.67 128.07, 52.74 96.83, 67.03 78.67 M-1.22 159.2 C24.19 131.22, 47.99 101.39, 68.74 79.66 M-0.79 162.85 C24.7 135.89, 53.43 105.96, 68.59 86.49 M0.06 165.37 C27.67 135.44, 52.69 104.15, 68.55 85.99 M0.87 172.58 C25.72 140.31, 50.01 110.65, 67.97 89.96 M-0.95 170.19 C16.28 153.6, 30.68 135.34, 68.36 91.66 M1.1 177.19 C21.63 151.58, 43.22 126.98, 67.78 96.7 M-0.26 176.12 C16.91 157.76, 34.37 137.63, 68.25 97.33 M1.94 182.23 C18 161.28, 36.32 139.59, 70.72 104.98 M0.06 183.86 C21.96 155.66, 45.34 129.85, 68.41 103.78 M0.12 188.66 C19.52 170.77, 37.5 148.93, 69.9 108.75 M-0.37 189.97 C20.74 162.93, 43.59 138.4, 68.81 109.51 M-1.17 193.36 C19.08 174.06, 34.91 153.19, 68.66 114.08 M0.9 193.99 C24.49 166.39, 48.09 137.95, 68.39 115.89 M-0.53 201.61 C17.33 180.55, 36.05 158.02, 68.32 123.78 M0.31 201.55 C20.36 178.26, 39.74 156.09, 68.21 122.26 M0.07 208.12 C19.9 187.5, 38.87 164.03, 70.54 126.24 M0.01 206.04 C22.8 181.47, 44.1 156.14, 69.14 127.55 M-0.27 213.26 C17.04 196.04, 31.23 177.8, 69.82 135.83 M-0.29 213.43 C16.62 193.12, 35.34 173.15, 69.78 133.22 M0.97 220.06 C20.96 193.17, 43.9 169.01, 67.83 141.8 M0.45 219.93 C16.44 200.32, 33.06 181.15, 68.15 140.77 M1.53 226.71 C16.68 205.84, 34.18 187.03, 69.2 144.81 M-0.28 225.1 C16.37 206.64, 32.68 186.29, 68.83 146.99 M-1.86 231.07 C15.46 215.48, 31.86 195.2, 69.33 153.46 M0.6 230.99 C21.26 206.65, 42.53 182.6, 68.17 152.98 M0.87 235.67 C18.46 217.56, 33.79 200.81, 68.66 157.25 M-0.46 237.74 C18.12 216.32, 37.62 195.07, 69.96 157.85 M1.61 243.94 C19.66 222.03, 36.3 202.72, 69.26 162.85 M0.16 244.5 C17.28 225.26, 32.56 205.38, 69.32 165.55 M0.45 249.25 C13.5 234.89, 28.84 215.9, 69.1 171.07 M-0.97 250.99 C21.87 226.04, 43.32 199.88, 68.44 170.52 M1.44 255.34 C17.81 234.61, 38.43 211.05, 69.87 177.42 M0.8 256.68 C27.39 223.49, 53.24 193.88, 69.69 176.8 M0.35 260.9 C25.07 235.95, 47.33 209.09, 68.76 184.54 M-0.66 261.9 C21.7 237.19, 44.87 211.12, 68.82 183.16 M-0.93 268.53 C14.82 248.99, 33.21 231.24, 68.78 187.26 M-0.5 267.44 C14.73 252.01, 29.65 233.64, 68.65 188.72 M2.03 272.99 C23.46 247.99, 44 223.44, 67.3 196.82 M0.95 273.47 C17.01 256.4, 32.56 236.89, 68.98 195.85 M-0.7 281.44 C19.27 259.2, 36.1 238.4, 70.35 201.87 M0.56 280.37 C25.72 251.5, 52.44 221.94, 68.26 201.75 M4.24 279.69 C27.28 255.86, 48.7 231.59, 68.41 208.95 M5.56 279.6 C25.59 257.52, 44.77 233.19, 68.79 207.62 M12.82 278.51 C31.48 256.75, 54.23 230.42, 68.24 215.06 M10.1 280.67 C28.39 259.52, 44.73 241.08, 67.85 213.77 M15.85 279.84 C34.23 258.74, 53.28 236.11, 71.15 220.58 M16.94 279.92 C28.41 266.72, 40.67 252.87, 69.43 219.2 M20.7 278.99 C36.94 264.59, 49.65 244.4, 69.55 225.58 M22.53 279.4 C39.13 260.46, 54.55 241.07, 68.09 224.58 M27.85 280.96 C37.43 267.86, 49.28 255.4, 69.29 230.76 M26.91 279.77 C43.41 261.95, 59.05 242.86, 68.72 231.75 M33.86 280.65 C40.98 271.76, 48.01 260.85, 69.41 238 M32.09 279.19 C45.04 265.92, 56.96 251.09, 69.62 236.93 M35.88 279.14 C44.95 269.28, 53.7 261.95, 69.96 242.87 M37.88 280.16 C44.72 272.16, 49.55 264.13, 69.76 243.84 M42.63 279.91 C50.97 271.19, 56.43 260.79, 70.31 251.56 M42.33 280.4 C51.17 270.35, 60.76 258.41, 68.4 249.27 M46.93 281.1 C53.78 272.17, 61.26 264.82, 69.69 257.21 M47.55 279.76 C53.6 275.28, 58.56 267.59, 69.02 256.02 M52.68 279.79 C57.16 276.68, 63.81 269.77, 69.48 260.85 M54.11 279.06 C58.18 275.6, 61.13 270.29, 69.04 262.47 M59.21 280.19 C62.14 278.09, 62.38 275.33, 69.04 267.97 M58.86 280.8 C61.23 277.06, 62.48 274.86, 68.95 267.81 M64.52 279.12 C65.79 277.67, 67.29 276.97, 69.04 273.9 M64 279.45 C65.39 278.57, 66.2 277.71, 69.02 274.6" stroke="#228be6" stroke-width="0.5" fill="none"></path><path d="M-0.05 -1.51 C13.35 -1.89, 28.09 1.31, 67.08 0.1 M-0.26 0.61 C19.79 -0.65, 38.46 0.89, 68.15 0.36 M70.24 -0.42 C69.03 84.04, 68.77 170.14, 70.19 278.98 M69.06 0.46 C69.45 92.04, 69.23 183.87, 69.39 279.85 M67.04 279.52 C41.44 278.98, 17.9 280.89, 1.55 279.35 M68.51 279.08 C50.32 279.89, 31.85 279.79, -0.04 279.49 M-1.21 279.93 C-1.38 171.52, -1.56 62.74, -0.5 -0.62 M0.19 279.04 C0.28 178.41, 0.07 76.89, -0.18 0.68" stroke="#000000" stroke-width="1" fill="none"></path></g><g stroke-linecap="round" transform="translate(428.9199860960225 304.3134970136958) rotate(0 34.423139575403866 176.63590812429447)"><path d="M0 0 C0 0, 0 0, 0 0 M0 0 C0 0, 0 0, 0 0 M0.22 6.89 C1.93 4.04, 1.97 3.22, 4.73 0 M-0.64 6.42 C1.1 5.06, 1.87 3.76, 4.88 0.29 M-0.75 13.48 C3.58 9.57, 7.24 6.55, 11.29 -1.61 M-0.46 12.41 C3.67 7.84, 7.16 4.86, 9.94 -0.32 M-0.04 17.8 C5.85 13.77, 8.68 5.23, 14.63 1.96 M0.47 18.19 C2.67 14.3, 6.68 9.74, 16.42 1.2 M-0.42 23.74 C6.48 17.06, 11.01 10.36, 19.97 -1.99 M0.95 24.63 C4.95 19.03, 10.32 11.7, 20.86 -0.56 M-1.75 31.4 C7.89 20.62, 18.36 7.69, 26.31 0.02 M0.46 29.78 C10.81 18.08, 19.37 7.36, 25.94 -0.22 M-0.24 36.44 C12.61 24.33, 20.92 13.28, 32.82 0.79 M-1.2 36.28 C8.2 27.11, 15.73 17.42, 31.21 -0.28 M-0.47 42.49 C12.5 25.54, 27.05 14.34, 35.93 -0.12 M0.93 42.88 C8.16 33.74, 17.5 22.71, 36.58 0 M0.93 49.16 C12.63 33.93, 28.12 17.33, 40.86 -0.74 M-0.22 49.78 C12.17 34.25, 25.8 17.02, 42.44 -0.33 M2.13 56.51 C11.12 39.19, 26.32 27.13, 46.63 -0.83 M-0.23 54.49 C13.54 38.27, 27.42 23.59, 47.28 -0.74 M1.09 60.79 C13.24 47.29, 26.03 28.56, 53.55 1.74 M0.44 61 C20.3 39.04, 39.95 15.92, 53.85 -0.15 M-1.62 67 C13.26 51.66, 30.22 33.75, 56.2 -1.12 M-0.12 67.64 C23.11 41.93, 45.63 14.79, 58.72 0.26 M1.52 72.83 C17.49 51.23, 34.96 34.28, 62.99 -0.09 M-0.31 72.42 C16.15 53.53, 33.85 34.05, 64.46 0.12 M1.19 80.67 C25.61 47.35, 53.15 16.6, 69.06 -0.6 M-0.17 78.46 C20.23 54.39, 41.47 30.79, 69.23 1.02 M2.12 86.13 C21.29 61.35, 44.39 36.03, 70.64 6.87 M0.13 85.8 C24.08 55.09, 51.19 26.77, 69.69 5.68 M0.11 89.81 C26.77 63.35, 48.17 32.96, 69.74 12.53 M-0.11 90.61 C23.73 66.9, 45.3 39.63, 68.34 12.94 M0.79 97.72 C21 75.11, 40.92 53.02, 69.22 17.81 M-0.62 96.97 C14.4 81.18, 28.59 64.48, 69.27 17.78 M-0.01 105.36 C16.04 88.22, 30.85 69.34, 70.38 25.34 M0.7 104.33 C20.97 79.66, 39.9 57.74, 68.28 24.6 M-0.02 109.7 C20.55 86.71, 40 65.94, 69.23 30.99 M0.72 110.82 C15.5 91.31, 32.53 74.29, 67.82 30.67 M0.31 113.64 C24.98 87.88, 51.88 59.3, 67.28 36.32 M0.55 115.16 C24.38 87.99, 49.81 61.15, 68.44 35.93 M-1.17 121.82 C23.89 97.41, 45.54 70.67, 68.62 44.36 M-0.86 121.79 C13.17 106.25, 27.44 91.13, 68.42 42.21 M-1.49 129.08 C24.06 98.33, 51.59 72.33, 66.7 48.09 M-1.21 128.73 C12.95 112.66, 27.86 96.47, 69.26 48.98 M-0.26 132.47 C14.86 117.79, 33.38 98.71, 68.62 54.47 M0 134.92 C16.92 114.93, 32.3 97.86, 68.53 54.82 M0.61 139.24 C27.25 111.99, 52.99 81.26, 67.46 60.4 M0.43 139.69 C19.96 118.11, 39.53 96.08, 68.84 60.79 M-0.26 147.37 C26.82 114.19, 56.07 84.25, 69.06 65.25 M0.32 146.53 C25.13 116.77, 52.22 87.25, 69.26 66.25 M1.31 153.31 C21.76 127.89, 44.44 99.91, 69.08 74.62 M0.17 152.28 C23.41 127.24, 44.96 101.75, 68.98 74.03 M-2.15 160.43 C24.03 131.29, 47.82 101.71, 67.77 80.79 M0.17 159 C27.72 127.78, 53.32 97.98, 68.76 80.29 M-1.43 163.09 C20.7 144.09, 39.78 119.71, 70.34 86.75 M1.09 165.31 C16.51 146.67, 30.55 128.61, 69.84 85.89 M1.64 170.61 C14.27 151.15, 29.49 133.81, 67.15 90.24 M-0.75 171.8 C26.96 141.09, 52.93 111.59, 68.85 91.79 M1 175.77 C21.43 151.17, 42.95 127.1, 68.64 96.17 M-0.07 176.89 C28.59 146.23, 55.4 112.89, 69.27 96.89 M-0.62 182.56 C20.52 157.82, 40.83 135.87, 70.27 104.43 M1.01 181.94 C25.13 152.73, 51.6 123.99, 69.06 103.19 M-0.84 190.67 C15.82 174.53, 28.48 157.67, 67.37 110.37 M0.47 189.18 C25.68 158.99, 53.47 126.91, 68.14 109.62 M-1.4 195.51 C16.54 174.82, 32.83 156.75, 67.46 116.79 M-0.77 195 C22.76 167.2, 45.45 140.97, 69.26 115.47 M0.2 200.21 C28.12 169.07, 54.47 139.43, 70.49 121.97 M0.14 201.42 C20.62 176.83, 42.14 153.69, 68.97 121.71 M1.46 208.1 C20.02 188.07, 35.63 166.59, 67.71 128.13 M-0.62 207.87 C25.39 178.38, 50.6 149.32, 69.02 126.91 M-0.06 214.46 C14.34 197.26, 27.73 181.69, 70.64 133.22 M0.11 212.41 C21.35 189.28, 42.9 165.51, 68.02 134.36 M0.08 219.06 C24.07 190.28, 50.81 160.67, 69.94 139.39 M-0.05 219.52 C19.69 195.88, 39.84 172.85, 68.92 139.9 M1.48 226.11 C26.2 195.93, 53.06 163.65, 67.71 145 M-0.13 225.51 C26.64 195.44, 51.59 165.51, 69.89 145.35 M-0.82 232.28 C22.17 209.83, 40.44 184.26, 69.71 152.63 M-0.9 231.93 C17.11 210.67, 35.49 188.51, 69.22 151.85 M-1.47 239.21 C14.38 220.33, 31.65 200.34, 68.25 157.56 M0.6 237.39 C26.46 209.02, 52.48 178.88, 68.84 157.75 M0.15 245.25 C13.64 226.21, 29.82 208.53, 67.18 163.53 M0.7 244.71 C27.45 212.51, 53.55 183.43, 69.89 163.74 M-1.21 249.95 C28.81 218.79, 54.19 187.43, 68.75 171.26 M0.53 250.8 C21.92 226.49, 42.07 201.2, 68.2 170.7 M-0.37 254.09 C14.67 239.11, 26.93 223.29, 69.84 178.41 M0.97 256 C16.5 233.93, 35.68 214.7, 69.22 177.11 M-1.46 263.65 C23.71 235.95, 46.89 210.43, 70.31 183.61 M-0.47 261.51 C22.68 237.45, 44.39 212.75, 68.92 182.41 M0.92 266.3 C23.26 242.15, 47.47 214.82, 67.78 186.95 M-0.17 267.24 C18.69 248.07, 34.58 228.07, 69.23 188.85 M-1.28 275.22 C13.9 255.98, 29.49 237.52, 70.68 193.73 M-0.8 274.91 C18.24 253.46, 34.86 233.07, 69.7 194.65 M1.26 281.52 C15.84 262.11, 31.81 244.66, 69.07 202.96 M0.19 279.96 C17.11 262.22, 33.29 242.58, 68.95 201.86 M-0.46 286.25 C17.45 267.14, 34.82 247.37, 70.9 207.36 M-0.54 286.9 C23.12 259.62, 44.69 233, 69.57 207.73 M-1.5 292.47 C23.73 267.53, 44.19 239.25, 70.35 213.37 M0.66 292.72 C14.94 274.33, 32.01 255.52, 69.06 214.12 M-0.14 297.66 C24.5 270.09, 47.85 245.43, 70.63 217.63 M-0.05 298.73 C19.49 276.46, 38.47 253.96, 69.25 219.31 M-0.85 305.53 C28 273.6, 51.12 245.67, 68.96 226.75 M-0.45 305.68 C26.38 273.11, 52.99 242.54, 67.96 225.2 M0.5 310.51 C16.51 292.27, 32.98 274.26, 67.48 233.79 M-0.69 311.69 C24.19 283.07, 48.05 255.81, 68.47 231.1 M0.98 317.71 C24.32 290.09, 45.3 264.21, 69.48 238.28 M-0.48 317.54 C25.95 288.32, 50.49 259.5, 68.41 237.19 M-1.15 322.99 C25.14 293.56, 53.73 263.89, 67.69 242.21 M-0.14 324.14 C22.88 295.09, 45.82 270.12, 68.66 243.85 M0.4 329.38 C20.81 303.84, 39.56 282.89, 71.13 250.52 M0.9 328.32 C27.92 298.52, 53.14 266.95, 68.84 249.52 M0.98 334.91 C15.37 317.26, 31.89 297.55, 70.12 254.88 M-0.36 336.01 C26.81 306.71, 50.56 276.76, 68.93 255.89 M-0.21 341.04 C26.72 315.05, 49.66 285.52, 67.1 262.17 M-0.94 342.09 C27.68 309.49, 54.17 279.96, 68.72 261.69 M0.24 348.7 C16.32 327.5, 32.15 310.49, 68.94 266.44 M1 347.77 C20.9 322.3, 42.24 299.09, 68.75 268.12 M-1.87 354.3 C23.75 324.91, 51.91 295.26, 67.19 273.02 M-0.95 353.99 C17.01 334.75, 34.48 316.79, 69.17 274.22 M5.84 352.14 C26.72 330.41, 45.18 304.35, 68.28 279.63 M5.28 353.2 C24.62 329.98, 46.29 308.08, 68.62 281.49 M9.53 352.34 C32.49 328.66, 49.48 308.1, 69.81 288.51 M10.11 354.66 C29.26 330.22, 49.53 308.1, 69.04 287.24 M16.39 354.41 C32.79 336.25, 44.24 319.76, 68.84 294.32 M16.2 353.4 C33.27 333.27, 51.51 313.1, 68.69 292.02 M22.41 353.11 C35.67 339.29, 46.34 322.16, 68.71 296.71 M20.82 353.43 C32.09 341.72, 42.82 328.32, 69.52 299.42 M27.85 354.12 C34.64 343.23, 46.88 330.88, 68.02 304.01 M25.97 352.83 C44.15 334.14, 59.65 315.67, 68.84 305.28 M30.29 353.86 C44.7 341.07, 53.98 327.56, 67.56 309.8 M31.98 352.9 C44.41 337.73, 59.25 322.86, 68.81 311.5 M36.08 355.19 C44.25 343.52, 51.37 334.12, 70.47 316.83 M37.7 353.23 C45.91 343.31, 55.87 331.76, 69.29 317.42 M41.35 355.2 C53.78 341.53, 62.44 331.73, 70.64 325.09 M42.05 352.93 C50.55 342.75, 58.95 333.62, 68.8 323.26 M47.53 352.93 C56.67 342.91, 66.56 332.6, 67.48 328.26 M48.21 353.65 C55.39 346.35, 61.97 338.69, 69.94 329.89 M54.35 353.15 C57.47 347.02, 64.32 338.45, 66.91 333.51 M53.18 352.75 C57.46 349.37, 61.7 343.87, 69.07 336.07 M59.17 353.82 C60.87 351.11, 64.01 346.18, 68.35 341.92 M58.17 352.61 C62.65 348.75, 65.06 346.24, 67.94 342.12 M63.31 354.13 C66.13 350.9, 67.03 348.47, 68.8 347.94 M63.51 353.25 C65.19 352.09, 66.64 350.79, 69.2 347.62" stroke="#228be6" stroke-width="0.5" fill="none"></path><path d="M-1.51 -0.46 C19.91 0.48, 44.77 -1.75, 68.94 -0.31 M0.61 0.19 C17.2 -0.55, 36.5 -0.51, 69.21 0.03 M68.49 -0.1 C68.12 110.6, 69.22 222.96, 68.36 353.65 M69.23 0.04 C69.23 115.05, 68.94 230.85, 69.09 353.72 M68.81 351.31 C46.8 352.6, 26.88 354.2, -0.2 352.6 M68.37 353.1 C42.03 352.76, 15.42 353, -0.07 354.13 M0.31 353.16 C0.51 226.51, -0.25 99.85, -0.52 0.81 M-0.43 353.17 C-1.29 253.63, -1.37 154.4, 0.57 -0.26" stroke="#000000" stroke-width="1" fill="none"></path></g><g stroke-linecap="round" transform="translate(523.5836199283831 213.90929206819075) rotate(0 34.423139575403866 221.838010597047)"><path d="M0 0 C0 0, 0 0, 0 0 M0 0 C0 0, 0 0, 0 0 M0.23 7.14 C0.89 3.58, 3.59 1.91, 4.63 -0.34 M-0.24 6.59 C0.87 4.93, 2.04 3.61, 4.92 0.29 M1.57 12.57 C4.61 9.26, 8.54 4.63, 9.05 0.27 M0.5 12.24 C3.09 8.68, 7.25 3.85, 10.34 0.28 M-0.77 19.07 C6.11 11.08, 8.47 6.52, 17.25 -1.05 M-0.37 17.56 C4.31 12.79, 8.32 9.04, 16.49 -0.04 M-0.07 24.9 C7.09 15.33, 14.27 5.59, 19.34 -1.11 M0.82 23.33 C5.62 18.28, 8.71 13.38, 20.77 0.57 M0.93 28.62 C7.42 22.52, 11.78 16.3, 25.97 1.87 M-0.7 31.25 C6.15 21.58, 13.97 13.71, 25.73 0.66 M-0.69 38.59 C6.64 28.04, 15.03 21.78, 32.78 -1.06 M-0.85 37.54 C11.6 23.11, 23.55 8.18, 31.71 0.41 M0.11 41.57 C5.4 34.78, 16.47 24.58, 36.5 -1.15 M0.5 42.17 C12.73 29.36, 23.07 15.08, 36.62 0.6 M0.12 47.24 C12.81 35.05, 24.1 20.66, 41.92 0.26 M0.73 47.97 C17.23 29.29, 31.96 11.45, 42.33 -0.48 M2.22 53.19 C16.24 35.88, 35.59 14.2, 46.45 -0.01 M0.2 54.23 C14.01 38.21, 29.34 21.56, 46.54 -0.22 M-0.16 61.19 C23.32 35.65, 41.48 12.18, 55.07 1.27 M0.06 61.63 C18.08 41.43, 34.96 21.73, 53.17 -0.75 M-0.6 66.16 C12.76 55.12, 23.51 37.29, 56.83 2 M0.04 67.78 C17.04 48.44, 32.63 29.94, 58.21 -0.12 M-0.03 72.67 C12.51 55.93, 29.74 38.52, 63.9 -1 M-0.43 72.44 C18.74 51.91, 37.41 30.03, 64.1 0.62 M1.15 79.48 C25.37 48.91, 52.16 16.69, 68.01 0.24 M-1.06 78.59 C17.83 57.13, 37.27 36.35, 69.63 0.28 M1.37 84.51 C22.04 61.72, 42.1 38.47, 70.24 7.14 M1.04 84.04 C24.41 57.14, 50.25 28.05, 69.04 6.41 M-1.62 93.09 C19.23 68.17, 36.06 49.42, 69.24 12.74 M-0.82 92.38 C20.21 69.95, 37.6 47.89, 69.65 12.11 M-0.36 98.95 C20.46 74.98, 41.87 51.18, 67.86 16.74 M-1.11 98.5 C22.96 71.68, 46.15 44.81, 67.83 17.75 M2.03 104.75 C25.06 78.22, 46.36 51.88, 70.14 24.03 M0.99 103.8 C15.25 83.94, 32.32 65.47, 69.4 24.05 M-0.29 110.57 C14.83 92.53, 32.09 74.17, 69.13 29.16 M0.83 109.29 C14.72 92.43, 31.04 72.91, 68.8 31.21 M-1.6 114.89 C15.8 100.16, 30.32 79.72, 69.21 37.33 M-0.08 115.2 C20.48 93.52, 41.25 69.37, 68.83 36.53 M-0.08 122.85 C17.82 103.6, 33.3 84.32, 70.59 40.68 M-0.1 121.87 C26.19 93.13, 52.86 62.42, 68.44 43.31 M0.52 127.28 C16.98 109.02, 38.19 84.53, 67.66 47.24 M0.17 127.36 C23.19 102.67, 46.04 77.79, 68.55 48.44 M-1.34 133.13 C30.38 103.81, 57.59 70.37, 68.79 53.46 M1.11 134.6 C22.71 107.66, 47.11 81.4, 69.15 55.53 M-1.22 142.07 C28.15 111.03, 53.96 78.28, 68.06 60.72 M-0.78 140.5 C15.09 122.75, 30.6 104.79, 68.46 62.07 M1.66 145.39 C21.64 122.42, 44.93 95.81, 67.67 68.29 M0.81 145.55 C27.25 116.38, 53.9 85.48, 68.66 67.01 M0.93 152.31 C27.48 122, 51.49 91.93, 70.38 73.62 M-0.09 152.76 C14.79 135.57, 29.15 119.63, 69.79 73.68 M1.39 158.97 C22.83 133.18, 43.74 106.74, 69.88 81.32 M-0.03 159.23 C13.7 141.6, 28.76 126.27, 69.39 79.36 M-1.2 164.9 C16.77 148.32, 29.31 132.64, 70.6 83.66 M1.03 165.26 C19.53 140.91, 38.6 119.89, 69.74 84.46 M-0.33 169.58 C18.53 145.12, 39.55 121.61, 67.43 93.09 M0.86 171.55 C15.95 153.72, 32.17 134.51, 68.98 91.6 M-0.42 177.38 C23.73 149.23, 48.45 118.32, 68.11 99.19 M0.7 176.75 C16.83 158.91, 30.23 141.82, 68.84 97.27 M-0.29 181.83 C14.38 163.69, 31.93 148.95, 69.71 105 M-0.9 182.4 C17.87 161.18, 37.14 139.05, 68.47 102.7 M1.16 190.65 C18.13 170.01, 34.4 149.63, 68.99 111.93 M-0.33 188.48 C25.84 159.77, 50.11 130.67, 68.25 109.44 M0.75 194.19 C15.74 175.44, 33.27 155.94, 70.16 116.33 M0.25 194.59 C19.51 171.1, 40.42 148.03, 68.84 116.56 M-1.2 201.99 C12.35 185.5, 27.39 170.96, 68.68 121.97 M0.01 201.07 C13.85 184.73, 29.18 166.61, 68.43 121.71 M1.43 207.75 C16.34 188.66, 29.78 172.83, 69.6 129.01 M1.21 206.61 C18.58 186.72, 36.34 166.18, 68.38 126.78 M1.14 213.57 C21.88 187.95, 44.25 165.41, 68.03 134.29 M-0.91 213.14 C18.77 192.3, 37.78 170.27, 69.17 134.76 M-0.92 218.99 C20.43 196.01, 41.01 171.99, 67.54 140.3 M-0.47 219.42 C16.88 198.67, 34.91 178.27, 68.05 141.39 M0.88 225.42 C28 194.47, 53.09 162.27, 67.9 147.72 M0.28 226.21 C24.39 197.51, 48.59 170.89, 68.25 146.22 M0.39 232.74 C21.58 208, 39.56 188.76, 68.87 151.87 M0.04 231.37 C26.65 201.09, 52.41 171.03, 68.09 151.85 M2.07 236.19 C26.22 209.64, 49.3 179.88, 68.55 159.75 M0.25 237.49 C21.76 214.43, 41.43 191.16, 68.74 157.41 M1.45 242.72 C25.26 214.41, 50.5 183.67, 67.87 166.25 M0.92 244.78 C19.11 220.97, 40.44 198.21, 68.07 165.57 M-0.5 251.93 C20.9 226, 42.14 202.12, 68.94 171.21 M0.34 250.66 C18.97 227.91, 36.54 207.37, 68.38 170.07 M-1.61 256.55 C24.85 225.88, 50.55 199.25, 70.84 175.85 M0.29 254.9 C25.41 225, 53.42 194.39, 69.54 176.89 M1.28 263.02 C14.83 246.46, 30.59 228.73, 69.38 183.33 M-0.85 262.78 C16 244.78, 32.15 226.11, 68.18 183.38 M-1.31 268.43 C27.43 239.13, 52.91 205.88, 67.46 187.7 M-0.38 268.67 C18.42 246.92, 36.3 227, 69.36 187.85 M0.95 272.77 C15.92 254.19, 31.77 237.25, 67.58 194.2 M0.64 274.91 C20.75 249.91, 42.02 226.62, 68.5 194.48 M0.59 279.96 C18.93 257.43, 39.16 237.75, 70.16 200.22 M-0.98 281.46 C18.85 259.43, 36.78 237.58, 69.06 200.91 M0.07 286.33 C17.01 267.96, 33.23 250.18, 69.31 207.8 M0.72 287 C26.88 255.01, 53.72 225.33, 69.68 207.41 M-0.37 293.12 C15.28 274.62, 27.68 261.4, 68.66 212.17 M-0.12 292.07 C23.86 265.2, 47.32 237.76, 69.41 213.98 M-0.43 299.48 C27.05 267.4, 57.43 236.61, 67.67 218.71 M0.64 298.7 C23.43 272.19, 46.07 245.52, 69.36 219.94 M0.79 306.74 C20.52 279.23, 44.2 255.51, 70.13 227.23 M0.94 305.27 C24.45 276.15, 50.04 244.92, 68.58 224.89 M-0.89 311.38 C16.63 291.62, 34.44 270.07, 70.51 232.92 M0.28 312.13 C24.77 282.98, 50.63 252.68, 67.83 232.26 M1.06 317.55 C14.72 298.03, 30.22 282.11, 69.75 238.92 M0.89 316.73 C15.86 299.08, 31.21 281.8, 68.67 238.44 M-0.32 321.56 C18.08 304.14, 36.19 282.74, 67.02 244.76 M0.83 322.79 C18.65 299.33, 40.6 276.91, 68.67 243.97 M0.82 328.89 C19.9 302.93, 43.55 282.47, 70.09 251.4 M-0.25 329.84 C22.47 302.98, 43.35 278.26, 69.09 249.08 M-0.31 334.43 C28.37 302.85, 54.94 274.32, 67.79 257.46 M0.78 336.17 C19.27 313.56, 37.07 293.43, 68.8 256.64 M-0.84 343.49 C20.61 319.96, 38.48 296.92, 68.42 264.21 M0.21 342.4 C16.18 322.14, 35.28 301.33, 67.94 261.73 M1.57 348.28 C25.37 317.42, 53.39 285.56, 67.44 268.11 M0.64 346.66 C14.68 328.66, 31.02 310.47, 69.12 268.78 M0.51 352.44 C25.2 327.22, 49.67 295.84, 67.36 273.26 M0.2 353.66 C15.07 337.9, 31.15 320.01, 68.57 274.72 M-0.86 360.01 C21.21 334.46, 39.09 312.15, 67.32 281.18 M0.2 358.36 C18.96 338.52, 38.91 316, 69.18 281.32 M-1.28 367.71 C20.95 338.61, 46.43 314.47, 70.94 287.32 M1.04 364.81 C22.6 339.02, 46.38 313.2, 69.68 286.34 M0.92 373.91 C20.79 346.51, 42.19 324.38, 70.1 293.52 M-0.09 371.8 C19.87 349.65, 39.7 326.1, 67.79 292.64 M-0.34 379.14 C20.65 353.48, 38.42 331.3, 67.23 297.06 M-0.02 377.97 C22.22 353.56, 42.63 329.27, 69.95 297.8 M0.8 382.63 C22.21 360.21, 42.34 333.32, 67.88 306.85 M-0.49 384.94 C20.69 360.23, 42.35 336.39, 69.15 305.03 M0.57 391.22 C18.25 369.28, 35.51 348.56, 67.01 312.51 M-0.39 388.95 C14.9 373.05, 30.35 355.03, 68.7 310.76 M2.03 395.71 C25.34 365.65, 50.8 338.16, 68.79 316.77 M0.08 395.7 C23.14 370.1, 44.92 343.8, 69.38 317.76 M1.43 403.78 C13.74 386.52, 29.59 372.19, 70.39 324.07 M-0.84 402.01 C21.04 377.02, 43.63 353.22, 68.56 324.31 M-0.05 408.55 C18.88 388.64, 36.96 363.36, 68.32 329.49 M0.66 408.91 C25.58 381.07, 49.69 353.91, 69.95 329.77 M-0.46 413.04 C16.01 396.02, 29.45 377.23, 66.91 335.03 M-0.86 414.82 C28.66 383.07, 55.62 351.85, 69.46 335.49 M0.57 419.94 C23.1 395.51, 42.36 371.78, 68.68 342.61 M-1.04 421.87 C20.22 397.33, 42.67 373.17, 68.95 342.42 M1.63 428.1 C21.09 400.03, 42.99 374.8, 70.12 346.55 M-0.57 427.02 C18.13 407.52, 36.21 387.43, 69.34 348.25 M-0.73 433.04 C21.14 409.18, 43.11 380.03, 69.45 354.1 M-0.03 433.27 C20.31 409.97, 40.55 385.52, 67.79 354.52 M-1.57 439.93 C17.8 415.13, 40.2 395.84, 68.97 358.41 M-0.16 439.16 C17.36 420.18, 31.88 403.09, 69.43 360.25 M1.49 443.13 C19.33 423.01, 39.4 400.95, 67.58 366.81 M0.66 445.02 C18.71 424.73, 35.53 406.11, 69.2 366.83 M5.98 443.34 C29.98 418.95, 52.28 393.02, 67.1 373.78 M5.42 444.71 C23.05 426.11, 38.54 407.27, 67.62 371.6 M13.22 445.54 C28.33 425.91, 42.31 407.36, 68.07 377.46 M10.53 444.15 C33.25 418.87, 54.64 394.42, 69.89 377.03 M16.46 444.05 C37.81 418.59, 57.29 394.39, 69.52 384.18 M17.32 443.1 C27.71 432.09, 36.93 418.95, 69.08 383.82 M20.8 444.13 C38.28 424.97, 57.19 403.7, 67.31 389.4 M21.34 445.27 C36.99 427.58, 51.59 409.62, 69.86 390.5 M26.16 442.19 C41.49 428.68, 54.06 412.87, 70.63 398.02 M26.71 443.24 C40.21 428.57, 56.13 411.81, 68.34 396.36 M31.8 446.06 C43.97 430.17, 55.42 418.05, 68.37 401.34 M32.01 443.33 C42.37 434.47, 51.07 422.66, 67.8 403.05 M38.66 443.99 C44 435.9, 53.45 427.38, 68.86 409.58 M38.01 445.21 C47.59 434.46, 56.44 423.6, 69.87 407.65 M41.15 445.12 C53.84 433.6, 62.46 420.53, 67.69 416.38 M42.79 445 C52.09 432.89, 61.64 423.84, 69.65 413.92 M46.91 444.03 C53.85 434.47, 62.79 429.61, 70.03 419.77 M48.93 444.48 C52.97 439.22, 56.98 433.84, 69.47 419.78 M55.16 445.71 C57.19 440.7, 61.34 437.43, 67.12 426.49 M53.21 444.62 C59.22 438.83, 64.49 431.97, 68.72 426.3 M57.61 445.49 C61.81 439.89, 66.02 435.92, 67.14 432.98 M58.56 444.53 C61.7 440.43, 65.14 437.12, 67.84 433.27 M64.08 443.72 C65.73 443.5, 66.01 441.37, 68.82 438.42 M64.29 444.2 C66.03 442.62, 67.45 440.88, 68.72 438.7" stroke="#228be6" stroke-width="0.5" fill="none"></path><path d="M-0.46 -1.73 C22.71 1.99, 42.72 0.61, 68.54 -0.84 M0.19 -0.56 C20.83 0.57, 42.43 -0.05, 68.88 0.14 M68.77 -0.49 C70.59 131.61, 71.69 262.12, 69.14 443.93 M68.88 -0.08 C69.34 142.16, 69.8 285.1, 69.19 443.76 M66.89 443.47 C51.86 445.37, 36.53 443.46, -0.67 445.38 M68.68 443.37 C41.48 442.94, 14.65 443.28, 0.86 444.26 M-0.09 443.57 C1.53 322.41, 1.4 202.12, 0.62 -0.19 M-0.08 443.85 C-0.75 281.26, -0.65 119.05, -0.2 0.16" stroke="#000000" stroke-width="1" fill="none"></path></g><g stroke-linecap="round" transform="translate(618.2472537607437 106.81508005582333) rotate(0 34.423139575403866 275.38511660323076)"><path d="M0 0 C0 0, 0 0, 0 0 M0 0 C0 0, 0 0, 0 0 M0.48 5.77 C1.05 4.28, 3.51 1.33, 4.29 -0.23 M-0.06 6.32 C1 4.74, 2.4 3.21, 4.92 0.51 M0.66 12.92 C3.92 10.34, 5.85 4.62, 10.94 0.19 M0.34 11.66 C3.38 9.25, 5.16 5.24, 10.95 -0.02 M0.51 19.84 C1.91 12.97, 6.75 11.07, 14.24 -0.1 M-1 18.46 C3.79 12.92, 9.61 8.94, 15.25 0.9 M1.09 23.59 C8.11 14.15, 14.96 3.9, 20.22 -1.86 M-0.48 25.01 C5.64 16.51, 11.95 9.39, 21.9 -0.67 M-1.85 31.73 C8.28 19.37, 18.25 9.47, 27.83 -0.29 M0.78 29.52 C7.15 21.34, 15.35 11.99, 26.62 -0.54 M1.46 36.81 C8.63 27.14, 20.09 15.5, 30.93 1.55 M0.41 36.41 C9.61 25.38, 18.28 15.18, 32.4 -1.08 M-0.81 40.61 C14.24 28.99, 25.85 11.62, 35.47 0.61 M-0.21 43.52 C12.07 28.59, 22.93 15.18, 37.23 -0.06 M-1.8 50.11 C9.47 38.01, 18.58 24.54, 42.92 1.49 M-1.07 49.55 C7.89 37.38, 17.7 27.82, 42.18 0.45 M-1.1 53.99 C18.9 35.37, 34.59 11.98, 47.27 0.3 M-0.06 53.91 C14.32 39, 28.02 21.77, 47.07 1.22 M0.24 62.41 C9.8 47.08, 21.46 38.32, 54.59 0.32 M0.68 61.82 C16.59 42.67, 33.04 23.46, 52.57 -1.05 M-1.45 67.49 C15.22 50.55, 25.03 35.38, 59.95 -0.17 M0.17 68.22 C17.7 46.55, 36.07 26.04, 57.83 -0.54 M-0.19 71.29 C22.03 48.36, 43.64 21.64, 62.99 -0.21 M-0.42 73.12 C25.49 44.95, 50.01 17.48, 64.61 0.74 M-0.03 77.86 C22.7 51.6, 43.86 27.36, 68.85 -0.35 M-0.93 79.01 C25.15 50.54, 51.89 21.65, 68.89 0.14 M-0.25 85.68 C16.73 66.16, 33.36 48.55, 70.51 7.07 M-0.72 84.69 C26.74 55.57, 52.01 25.62, 69.77 5.5 M1.66 91.47 C13.87 72.18, 32.23 56.2, 69.45 11.63 M0.95 92.43 C16.59 72.68, 32.58 54.76, 68.82 12.15 M0.87 98.64 C24.98 71.29, 49.31 40.27, 66.79 19.4 M0.41 97.83 C23.23 72.15, 45.95 45.54, 67.8 18.94 M1.42 105.31 C21.67 79.6, 42.11 57.29, 68.83 22.89 M0.47 103.19 C25.24 73.46, 51.46 42.86, 68.85 23.51 M0.58 108.34 C14.49 93.98, 28.08 78.34, 67.3 29.1 M-0.7 108.91 C17.25 89.42, 32.62 69.75, 69.35 29.77 M-0.35 115.77 C17.87 97.8, 30.37 79.42, 70.22 35.98 M-0.04 115.31 C15.05 100.36, 27.7 82.81, 69.43 35.66 M0.95 122.61 C15.14 105.03, 29.24 90.24, 66.91 44.2 M-0.03 121.83 C18.81 102.34, 35.58 80.87, 69.55 42.34 M-1.28 127.34 C23.88 104.35, 42.75 75.94, 66.81 49.61 M-1.2 128.85 C17.55 108.85, 36.01 87.82, 68.01 50.07 M-0.67 135.88 C15.56 120.14, 27.63 102.32, 67.79 55.3 M0.79 133.09 C14.08 117.9, 28.04 100.88, 69.85 55.53 M1.61 141.64 C15.64 124.45, 28 105.84, 68.39 59.56 M0.03 140.97 C26.95 110.45, 53.72 78.15, 69.74 61.28 M-0.32 145.97 C26.51 118.58, 49.68 87.33, 70.7 68.4 M-0.16 146.49 C20.33 124.16, 39.09 100.55, 69.43 67.55 M-0.06 153.93 C22.39 125.32, 45.14 101.26, 69.38 71.28 M0.39 152.37 C15.27 134.49, 31.42 117.18, 69.44 73.42 M-0.06 158.8 C16.22 138.16, 31.74 122.55, 70.42 77.63 M0.19 157.89 C12.62 142.73, 27.38 127.38, 68.46 78.67 M0.62 166.06 C18.36 144.41, 36.91 126.39, 67.51 84.84 M0.97 164.31 C18.91 140.31, 40.26 118.46, 68.31 85.16 M-1.36 169.43 C21.61 142.46, 45.63 114.28, 70.28 90.24 M0.61 170.21 C16.14 152.64, 30.22 136.16, 68.79 92.21 M1.19 175.3 C25.14 148.35, 46.39 121.69, 71.13 95.65 M0.56 177.37 C17.12 155.88, 34.4 137.06, 69.21 96.47 M-1.01 182.55 C25.89 153.43, 56.16 121.06, 70.28 103.1 M-0.45 181.92 C20.74 159.02, 41.11 135.09, 67.98 103.07 M1.14 191.02 C21.72 164.85, 42.52 138.75, 70.56 111.3 M-1.03 190.2 C18.69 166.83, 38.1 143.61, 68.07 109.42 M-0.57 193.48 C15.79 175.85, 31.31 158.88, 69.71 115.7 M-0.17 194.1 C26.06 164.59, 52.6 135.42, 69.93 114.69 M0.58 199.71 C19.24 179.16, 39.86 157.45, 68.69 120.45 M-0.34 200.49 C24.15 173.64, 46.87 146.84, 68.42 121.11 M1.09 208.9 C17.97 185.03, 38.17 161.18, 70.48 126.92 M-0.05 207.08 C19.44 184.82, 38.2 162.58, 68.24 127.85 M0.25 213.49 C19.11 191.29, 41.05 166.92, 69.09 133.43 M-0.18 213.52 C18.47 193.66, 35.95 171.84, 69.57 134.2 M-1 219.61 C25.29 190.63, 50.54 161.82, 68.45 139.76 M-0.56 219.31 C24.84 190.24, 50.61 160.98, 69.53 141.38 M0.19 227.12 C25.2 196.12, 49.04 165.64, 70.62 147.16 M0.98 225.12 C17.66 204.88, 36.39 184.08, 69.12 145.94 M0.85 233.56 C12.84 215.38, 30.29 198.14, 68.12 154.34 M-0.52 232.25 C25.64 201.77, 51.93 172.39, 68.09 153.16 M-0.95 238.71 C23.83 210.28, 45.3 184.16, 70.74 157.96 M0.35 238.42 C15.54 220.5, 30.56 201.54, 68.4 158.88 M-1.07 244.3 C25.88 213.68, 50.41 182.29, 70.59 164.41 M0.98 242.96 C21.67 218.89, 43.49 192.89, 69.9 164.65 M1.47 250.53 C22.86 224.31, 46.25 197.69, 68.89 170.27 M0.2 250.64 C13.84 231.75, 29.78 213.82, 67.74 171.62 M0.84 256.03 C24.03 228.5, 51.24 200.67, 68.28 178.34 M-0.8 255.05 C24.74 227.69, 49.65 198.81, 69.32 175.87 M0.66 261.92 C24.13 236.23, 46.36 211.32, 69.1 181.64 M0.42 262.02 C17.46 243.56, 33.81 223.67, 69.15 183.84 M0.81 268.29 C18.1 249.2, 31.46 229.01, 68.22 187.88 M1.05 267.44 C15.11 250.46, 30.96 233.78, 68.37 188.15 M-1.5 273.91 C27.15 240.71, 57.37 209.33, 68.06 195.26 M0.64 274.42 C27.14 243.02, 55.27 211.61, 68.34 194.77 M-0.97 280.78 C14.59 262.85, 33.09 243.39, 67.42 200.91 M0.53 281.13 C21.56 256.06, 42.8 232.09, 68.11 200.88 M0.15 286.1 C17.51 266.66, 35.45 248.47, 69.75 208.94 M0.82 286.21 C21.5 260.89, 44.41 236.96, 69.37 206.22 M0.28 294.31 C25.26 261.56, 55.45 231.26, 67.46 214.42 M-0.77 292.14 C13.64 275.74, 27.54 261.22, 69.27 214.51 M1.39 297.51 C20.97 277.65, 41.82 251.23, 68.76 219.86 M0.62 299.1 C27.46 267.65, 54.11 236.83, 69.99 219.28 M1.99 303.3 C16.57 285.34, 34.88 266.1, 70.61 227.03 M0.52 304.1 C27.46 272.99, 52.23 243.13, 68.28 225.05 M-0.03 311.24 C24.71 283.64, 47.69 256.47, 69.65 233.35 M0.72 310.87 C23.18 285.31, 44.45 258.83, 68.98 231.15 M0.89 316.83 C24.72 287.02, 52.19 257.5, 70.39 235.99 M0.08 317.18 C18.93 295.02, 38.1 272.18, 69.92 237.1 M-1.75 323.56 C16.47 306.38, 30.67 285.37, 69.58 243.82 M-0.52 322.32 C23.72 295.29, 48.98 265.91, 68.79 244.04 M0.33 327.33 C18.05 307.35, 41.27 284.66, 70.97 249.92 M1.28 328.87 C15.62 309.67, 32.18 291.56, 68.65 250.53 M-0.79 336.32 C15.64 316.41, 35.18 294.78, 70.37 255.35 M0.95 335.87 C17.38 314.23, 36.23 293.38, 69.55 255.75 M1.61 343.37 C17.19 322.53, 33.27 301.3, 70.46 261.59 M0.52 340.71 C25.04 313.83, 48.94 284.82, 67.98 263.31 M1.15 346.03 C24.48 319.89, 46.82 291.39, 69.11 266.61 M-0.47 346.46 C22.5 320.31, 45.36 293.96, 69.78 268.66 M-1.35 354.61 C25.56 327.01, 46.22 297.75, 67.6 272.84 M-0.13 353.3 C17.97 335.23, 33.84 315.48, 69.06 274.45 M0.97 360.57 C25.25 328.1, 52.77 297.75, 68.87 280.42 M-0.68 358.36 C15.9 342.66, 29.78 326.51, 69.01 281.18 M2.01 364.38 C24.7 338.19, 52.29 309.59, 69.75 287.19 M-0.89 364.84 C16.7 345.54, 34.2 327.06, 68.77 286.53 M1.55 371.93 C15.16 352.48, 34.04 333.88, 69.3 292.72 M-0.56 371.9 C18.28 350.97, 35.72 329.86, 68.41 292.79 M1.54 378.6 C21.17 350.8, 44.35 324.36, 67.58 298.76 M0.36 378.04 C17.83 357.38, 35.38 339.17, 68.33 298.69 M-1.63 385.23 C24.66 355.95, 46.52 327.99, 70.72 305.06 M0.68 384.47 C25.85 355.95, 51.8 325.95, 68.9 304.55 M1.71 390.6 C25.65 360.82, 50.73 329.75, 69.71 309.8 M-0.56 388.96 C19.16 368.8, 36.79 348.67, 67.97 312.14 M-0.47 395.22 C18.71 371.9, 40.37 351.41, 68.73 317.63 M-0.47 397.02 C25.86 366.41, 51.52 337.64, 69.72 316.06 M0.95 401.81 C16.31 384.24, 34.55 366.55, 69.37 323.67 M-0.82 401.72 C15.34 384.46, 32.65 365.64, 69.61 323.13 M0.47 407.28 C16.28 390.5, 26.69 375.52, 69.54 329.99 M0.84 409.07 C15.82 391.33, 31.5 373.69, 69.82 328.24 M-1.7 414.78 C13.3 396.39, 26.6 379.44, 68.42 337.38 M0.09 415.47 C15.72 397.3, 31.9 379.28, 68.88 335.51 M-1.45 422.91 C15.88 400.63, 33.95 380.86, 69.35 341.83 M0.47 420.21 C14.15 405.97, 28.11 388.95, 69.15 342.1 M1.46 425.71 C24.62 395.49, 50.57 369.27, 68.04 346.54 M0.38 426.96 C18.78 407.58, 36.54 386.73, 69.73 347.66 M-0.26 432.72 C23.63 406.93, 42.32 382.08, 68.93 353.95 M-0.04 433.07 C25.09 404.29, 49.05 376.2, 69.35 353.66 M1.38 437.4 C21.79 414.6, 47.74 386.11, 67.99 358.17 M0.61 439.48 C17.48 418.27, 36.16 399.51, 69.83 359.28 M-1.33 444.96 C20.69 422.26, 40.86 396.49, 69.73 364.8 M0.56 445.85 C13.71 429.56, 28.52 412.74, 69.75 366.54 M-0.99 452.79 C22.81 427.13, 45.01 399.37, 70.04 371.38 M0.38 452.4 C19.11 430.46, 37.73 406.83, 67.86 372.15 M1.25 458.51 C27.89 423.83, 55.67 392.58, 68.47 379.43 M-0.14 457.32 C16.69 437.56, 34.49 418.52, 68.04 378.91 M-0.11 463.94 C18.1 439.69, 37.81 417.94, 68.53 382.41 M-1.06 464.14 C23.31 435.45, 45.81 409.58, 68.17 385.09 M0.01 467.61 C17.73 450.5, 33.06 430.45, 68.5 390.27 M1.15 469.56 C21.69 445.45, 41.87 421.9, 69.6 390.27 M-1.8 476.53 C27.67 444.58, 54.78 415.05, 70.46 397.15 M-0.75 474.67 C25.78 448.19, 50.29 417.75, 68.81 396.5 M1.45 482.65 C24.77 452.52, 52.15 420.88, 67.12 401.9 M-1.28 482.73 C21.98 457.91, 42.18 432.37, 68.83 402.15 M-0.59 486.88 C23.33 461.75, 46.6 433.76, 70.11 408.09 M0.63 488.56 C14.47 471.2, 28.58 454.33, 68.19 409.32 M0.68 495.1 C28.05 463.36, 53.45 431.56, 70.25 415.99 M0.56 494 C22.92 467.36, 48.11 440.74, 67.79 415.17 M-0.38 498.66 C24.79 469.81, 55.11 438.7, 68.4 419.1 M0.07 499.66 C19.04 476.22, 38.4 455.45, 68.4 419.83 M1.43 506.11 C25.44 477.14, 51.55 445.75, 68.45 427.86 M0.34 506.16 C15.76 489.58, 29.7 472.48, 68.27 427.5 M0.9 511.71 C13.98 496.21, 28.83 477.38, 68.2 434.18 M-0.39 511.9 C18.8 489.75, 39.04 466.99, 68.58 432.35 M-1.25 519.42 C28.43 486.78, 52.43 456.01, 67.57 439.43 M0.1 518.53 C18.93 497.91, 36.76 476.51, 68.38 439.87 M-2.1 522.94 C15 507.58, 27.42 491.56, 68.97 446.45 M-1.07 524.26 C20.16 502.81, 39.72 479.09, 69.49 446.28 M-1.71 530.14 C19.82 504.24, 41.52 480.26, 68.08 452.03 M-0.44 529.76 C22.9 502.59, 48.89 473.82, 69.94 450.34 M1.93 534.91 C25.77 505.18, 50.66 475.81, 66.86 458.67 M-0.56 537.28 C16.79 516.07, 36.18 497, 69.64 456.56 M-0.32 541.54 C24.67 512.73, 47.86 486.45, 68.41 463.09 M-0.54 542.54 C19.46 519.26, 40.24 496.23, 67.8 463.01 M-0.41 548.82 C19.18 530.05, 35.58 510.66, 69.26 468.2 M0.88 548.08 C23.14 523.3, 45.97 496.66, 69.87 468.72 M1.11 551.72 C22.49 528.05, 40.66 505.97, 67.61 475.16 M2.18 552.39 C16.74 536.89, 29.71 521.14, 68.44 475.06 M7.32 552.92 C28.95 527.24, 52.19 502.86, 70.21 479.79 M7.91 552.78 C30.9 526.81, 52.8 500.84, 68.7 481.59 M14.02 551.12 C28.22 531.06, 48.44 511.79, 69.35 488.43 M12.4 553.08 C33.76 528.97, 55.11 503.5, 68.09 487.22 M17.04 551.67 C27.39 540.48, 36.71 527.86, 69.71 494.33 M17.72 551.64 C34.02 533.66, 50.36 517.24, 67.71 494.05 M22.03 554.18 C35.74 535.06, 51.68 521.97, 68.61 501.72 M22.06 552.31 C40.04 532.2, 58.18 511.89, 69.31 500.78 M27.92 552.17 C37.79 542.46, 47.7 529.87, 68.35 505.79 M27.83 551.49 C40.8 538.53, 52.34 524.4, 68.11 506.07 M31.93 552.9 C45.67 538.33, 59.68 520.57, 70.99 513.2 M33.31 553.3 C46.36 538.95, 59.25 524.21, 68.35 512.37 M41.06 553.09 C45.99 542.87, 54.7 535.53, 67.39 517.81 M38.75 552.68 C49.93 540.93, 60.32 527.46, 68.84 519.15 M45.12 550.66 C51.08 545.93, 55.36 539.42, 68.05 525.2 M44.01 552.55 C53.25 542.74, 61.14 533.83, 68.49 524.66 M48.19 552.49 C55.78 545.5, 63.91 537.33, 67.37 528.64 M50.67 552.88 C54.98 546.18, 60.06 539.06, 69.17 529.37 M53.65 554.2 C60.01 544.75, 65.07 539.54, 67.95 537.14 M55.68 551.89 C61.03 545.93, 65.71 540.14, 68.66 537.36 M59.98 551.95 C64.88 547.89, 67.56 545.17, 68.02 543.37 M61.15 552.78 C62.99 548.47, 66.58 544.69, 69.74 542.22 M65.22 552.83 C67.27 550.72, 67.97 549.77, 68.52 549.11 M65.56 552.54 C66.36 551.14, 67.7 550.32, 69.02 548.54" stroke="#228be6" stroke-width="0.5" fill="none"></path><path d="M-1.73 0.46 C21.96 -1.61, 41.08 -0.15, 68 0.26 M-0.56 -0.73 C19.82 -0.83, 38.03 -0.1, 68.99 -0.04 M68.45 -0.2 C68.54 215.78, 67.94 430.39, 69.06 550.94 M68.78 -0.09 C69.92 180.76, 70.31 361.23, 68.91 550.55 M68.64 550.72 C56.11 551.64, 39.76 549.43, 1.7 552.64 M68.54 550.48 C50.07 550.61, 32.04 551.51, 0.58 550.49 M-0.08 550.61 C-1.08 428.63, -0.85 307.51, -0.15 0.53 M0.14 550.59 C1.56 371.99, 1.83 193.22, 0.13 0.12" stroke="#000000" stroke-width="1" fill="none"></path></g><g transform="translate(291.68176646479515 10) rotate(0 139.5 26.5)"><text x="139.5" y="42" font-family="Cascadia, Segoe UI Emoji" font-size="43.028924469254804px" fill="#000000" text-anchor="middle" style="white-space: pre;" direction="ltr">Volume (Go)</text></g><g transform="translate(130.9446841464328 696.3113452846142) rotate(336.3262257417932 41.5 21)"><text x="41.5" y="33" font-family="Cascadia, Segoe UI Emoji" font-size="34.423139575403845px" fill="#000000" text-anchor="middle" style="white-space: pre;" direction="ltr">2017</text></g><g transform="translate(221.30542553186797 696.3113452846142) rotate(336.3262257417932 41.5 21)"><text x="41.5" y="33" font-family="Cascadia, Segoe UI Emoji" font-size="34.423139575403845px" fill="#000000" text-anchor="middle" style="white-space: pre;" direction="ltr">2018</text></g><g transform="translate(319.1962286994226 696.3113452846142) rotate(336.3262257417932 41.5 21)"><text x="41.5" y="33" font-family="Cascadia, Segoe UI Emoji" font-size="34.423139575403845px" fill="#000000" text-anchor="middle" style="white-space: pre;" direction="ltr">2019</text></g><g transform="translate(404.178354526201 696.3113452846142) rotate(336.3262257417932 41.5 21)"><text x="41.5" y="33" font-family="Cascadia, Segoe UI Emoji" font-size="34.423139575403845px" fill="#000000" text-anchor="middle" style="white-space: pre;" direction="ltr">2020</text></g><g transform="translate(506.37205014068104 696.3113452846142) rotate(336.3262257417932 41.5 21)"><text x="41.5" y="33" font-family="Cascadia, Segoe UI Emoji" font-size="34.423139575403845px" fill="#000000" text-anchor="middle" style="white-space: pre;" direction="ltr">2021</text></g><g transform="translate(593.5056221909222 696.3113452846142) rotate(336.3262257417932 41.5 21)"><text x="41.5" y="33" font-family="Cascadia, Segoe UI Emoji" font-size="34.423139575403845px" fill="#000000" text-anchor="middle" style="white-space: pre;" direction="ltr">2022</text></g><g transform="translate(58.87123566043101 629.6165123572692) rotate(0 13.5 26.5)"><text x="27" y="42" font-family="Cascadia, Segoe UI Emoji" font-size="43.028924469254804px" fill="#000000" text-anchor="end" style="white-space: pre;" direction="ltr">0</text></g><g stroke-linecap="round"><g transform="translate(119.11172991738795 683.4026679438377) rotate(0 296.94384462516155 -0.12256601629516695)"><path d="M0.15 -0.45 C185.39 -0.65, 371.39 -1.15, 593.83 0.11 M-0.03 -0.2 C175.56 0.79, 351.67 0.5, 593.92 0.1" stroke="#000000" stroke-width="1" fill="none"></path></g></g><g stroke-linecap="round"><g transform="translate(119.11172991738795 683.4026679438377) rotate(0 -0.12686088175109944 -301.26802545881947)"><path d="M-0.45 -0.59 C-0.67 -165.34, -1.17 -329.54, 0.11 -602.44 M-0.2 -0.1 C0.8 -234.89, 0.51 -470.36, 0.1 -602.32" stroke="#000000" stroke-width="1" fill="none"></path></g></g><g transform="translate(13 67.19599936798522) rotate(0 39 26.5)"><text x="78" y="42" font-family="Cascadia, Segoe UI Emoji" font-size="43.028924469254804px" fill="#000000" text-anchor="end" style="white-space: pre;" direction="ltr">400</text></g><g stroke-linecap="round"><g stroke-opacity="0.5" fill-opacity="0.5" transform="translate(127.81735468155284 97.3162464964636) rotate(0 296.5902741862401 1.0310454595280163)"><path d="M-0.59 0.79 C213.54 1.62, 428.22 1.44, 593.77 0.72" stroke="#000000" stroke-width="1.5" fill="none" stroke-dasharray="1.5 7"></path></g></g><g transform="translate(11 210.5842275854726) rotate(0 39 26.5)"><text x="78" y="42" font-family="Cascadia, Segoe UI Emoji" font-size="43.028924469254804px" fill="#000000" text-anchor="end" style="white-space: pre;" direction="ltr">300</text></g><g stroke-linecap="round"><g stroke-opacity="0.5" fill-opacity="0.5" transform="translate(127.81735468155284 240.704474713951) rotate(0 297.1804010821447 0.6834121791178305)"><path d="M0.48 0.45 C204.4 1.63, 409.22 0.89, 593.88 0.29" stroke="#000000" stroke-width="1.5" fill="none" stroke-dasharray="1.5 7"></path></g></g><g transform="translate(10 353.97245580296) rotate(0 39 26.5)"><text x="78" y="42" font-family="Cascadia, Segoe UI Emoji" font-size="43.028924469254804px" fill="#000000" text-anchor="end" style="white-space: pre;" direction="ltr">200</text></g><g stroke-linecap="round"><g stroke-opacity="0.5" fill-opacity="0.5" transform="translate(127.81735468155239 384.09270293143834) rotate(0 296.54357429872607 -0.21370718330323513)"><path d="M-0.55 0.33 C156.92 -1.41, 314.47 -0.66, 593.64 -0.12" stroke="#000000" stroke-width="1.5" fill="none" stroke-dasharray="1.5 7"></path></g></g><g transform="translate(29 497.3606840204473) rotate(0 39 26.5)"><text x="78" y="42" font-family="Cascadia, Segoe UI Emoji" font-size="43.028924469254804px" fill="#000000" text-anchor="end" style="white-space: pre;" direction="ltr">100</text></g><g stroke-linecap="round"><g stroke-opacity="0.5" fill-opacity="0.5" transform="translate(127.8173546815533 527.4809311489257) rotate(0 296.9197588575944 -0.46071892770524414)"><path d="M-0.23 -0.37 C204.29 -0.59, 408.1 -1.08, 594.07 -0.21" stroke="#000000" stroke-width="1.5" fill="none" stroke-dasharray="1.5 7"></path></g></g><g transform="translate(153.85222417434443 492.903574749183) rotate(0 25.5 17)"><text x="25.5" y="27" font-family="Cascadia, Segoe UI Emoji" font-size="28px" fill="#000000" text-anchor="middle" style="white-space: pre;" direction="ltr">122</text></g><g transform="translate(248.515858006705 445.61522139307266) rotate(0 25.5 17)"><text x="25.5" y="27" font-family="Cascadia, Segoe UI Emoji" font-size="28px" fill="#000000" text-anchor="middle" style="white-space: pre;" direction="ltr">156</text></g><g transform="translate(343.1794918390656 383.0276948923384) rotate(0 25.5 17)"><text x="25.5" y="27" font-family="Cascadia, Segoe UI Emoji" font-size="28px" fill="#000000" text-anchor="middle" style="white-space: pre;" direction="ltr">201</text></g><g transform="translate(437.84312567142615 309.3134970136958) rotate(0 25.5 17)"><text x="25.5" y="27" font-family="Cascadia, Segoe UI Emoji" font-size="28px" fill="#000000" text-anchor="middle" style="white-space: pre;" direction="ltr">254</text></g><g transform="translate(532.5067595037867 218.90929206819075) rotate(0 25.5 17)"><text x="25.5" y="27" font-family="Cascadia, Segoe UI Emoji" font-size="28px" fill="#000000" text-anchor="middle" style="white-space: pre;" direction="ltr">319</text></g><g transform="translate(627.1703933361473 111.81508005582333) rotate(0 25.5 17)"><text x="25.5" y="27" font-family="Cascadia, Segoe UI Emoji" font-size="28px" fill="#000000" text-anchor="middle" style="white-space: pre;" direction="ltr">396</text></g><g transform="translate(14.441832085859005 777.7968245875317) rotate(0 370 17)"><text x="740" y="27" font-family="Cascadia, Segoe UI Emoji" font-size="28px" fill="#000000" text-anchor="end" style="white-space: pre;" direction="ltr">Volume mensuel de trafic sur Internet (en Go)</text></g></svg>