<svg width="980" height="551" xmlns="http://www.w3.org/2000/svg" xmlns:xlink="http://www.w3.org/1999/xlink">
<path fill="#ff595e" d="M 83.78 298.39 Q 83.78 298.39 83.78 298.40 83.77 298.40 83.77 298.41 83.76 298.41 83.77 298.40 Z" data-drauu_index="0"></path><path fill="#ff595e" d="M 83.78 298.39 Q 83.78 298.39 83.78 298.40 83.77 298.40 83.77 298.41 83.76 298.41 83.77 298.40 Z" data-drauu_index="1"></path><path fill="#ff595e" d="M 779.71 291.44 Q 779.71 291.44 779.71 291.44 779.70 291.44 779.70 291.45 779.70 291.45 779.70 291.44 Z" data-drauu_index="2"></path><path fill="#ff595e" d="M 309.91 172.77 Q 309.91 172.77 309.91 172.78 309.90 172.78 309.90 172.78 309.90 172.79 309.90 172.78 Z" data-drauu_index="0"></path><path fill="#ff595e" d="M 767.52 383.10 Q 767.52 383.10 767.52 383.10 767.51 383.11 767.51 383.11 767.51 383.11 767.51 383.11 Z" data-drauu_index="0"></path><path fill="#ff595e" d="M 805.27 136.17 Q 805.27 136.17 805.40 138.39 805.53 140.62 804.68 142.81 803.84 145.00 803.39 147.35 802.94 149.71 802.47 152.09 801.99 154.47 801.81 156.81 801.62 159.15 801.80 160.95 801.97 162.74 802.17 163.89 802.37 165.04 802.63 167.16 802.89 169.27 802.97 170.37 803.05 171.46 802.32 173.99 801.59 176.52 801.58 176.52 801.58 176.52 801.57 176.52 801.57 176.52 800.35 174.68 799.14 172.84 799.03 171.34 798.93 169.84 798.68 167.77 798.42 165.70 798.21 164.40 797.99 163.10 797.81 160.97 797.64 158.84 797.85 156.27 798.07 153.70 798.54 151.31 799.02 148.93 799.56 146.25 800.10 143.57 800.98 141.31 801.85 139.05 803.55 137.60 805.25 136.16 805.26 136.16 Z" data-drauu_index="0"></path>
</svg>