<svg width="980" height="551" xmlns="http://www.w3.org/2000/svg" xmlns:xlink="http://www.w3.org/1999/xlink">
<path fill="#ff595e" d="M 612.40 361.66 Q 612.40 361.66 612.39 361.66 612.39 361.66 612.39 361.67 612.38 361.67 612.39 361.66 Z" data-drauu_index="0"></path><path fill="#ff595e" d="M 138.36 133.99 Q 138.36 133.99 138.36 134.00 138.36 134.00 138.35 134.00 138.35 134.01 138.36 134.00 Z" data-drauu_index="0"></path><path fill="#ff595e" d="M 558.56 291.85 Q 558.56 291.85 558.56 291.86 558.55 291.86 558.55 291.86 558.55 291.87 558.55 291.86 Z" data-drauu_index="0"></path><path fill="#ff595e" d="M 173.04 204.25 Q 173.04 204.25 173.03 204.26 173.03 204.26 173.03 204.26 173.02 204.27 173.03 204.26 Z" data-drauu_index="0"></path><path fill="#ff595e" d="M 173.04 204.25 Q 173.04 204.25 173.03 204.26 173.03 204.26 173.03 204.26 173.02 204.27 173.03 204.26 Z" data-drauu_index="1"></path><path fill="#ff595e" d="M 307.17 310.56 Q 307.17 310.56 307.17 310.56 307.17 310.56 307.16 310.57 307.16 310.57 307.17 310.56 Z" data-drauu_index="2"></path><path fill="#ff595e" d="M 314.93 314.66 Q 314.93 314.66 314.93 314.67 314.92 314.67 314.92 314.67 314.92 314.68 314.92 314.67 Z" data-drauu_index="3"></path><path fill="#ff595e" d="M 314.93 314.66 Q 314.93 314.66 314.93 314.67 314.92 314.67 314.92 314.67 314.92 314.68 314.92 314.67 Z" data-drauu_index="4"></path><path fill="#ff595e" d="M 391.12 394.96 Q 391.12 394.96 391.12 394.97 391.11 394.97 391.11 394.97 391.11 394.98 391.11 394.97 Z" data-drauu_index="5"></path><path fill="#ff595e" d="M 391.12 394.96 Q 391.12 394.96 391.12 394.97 391.11 394.97 391.11 394.97 391.11 394.98 391.11 394.97 Z" data-drauu_index="6"></path><path fill="#ff595e" d="M 393.40 394.96 Q 393.40 394.96 393.40 394.97 393.40 394.97 393.39 394.97 393.39 394.98 393.40 394.97 Z" data-drauu_index="7"></path><path fill="#ff595e" d="M 393.40 394.96 Q 393.40 394.96 393.40 394.97 393.40 394.97 393.39 394.97 393.39 394.98 393.40 394.97 Z" data-drauu_index="8"></path><path fill="#ff595e" d="M 335.92 342.49 Q 335.92 342.49 335.91 342.50 335.91 342.50 335.91 342.51 335.90 342.51 335.91 342.50 Z" data-drauu_index="9"></path><path fill="#ff595e" d="M 335.92 342.49 Q 335.92 342.49 335.91 342.50 335.91 342.50 335.91 342.51 335.90 342.51 335.91 342.50 Z" data-drauu_index="10"></path><path fill="#ff595e" d="M 339.11 337.02 Q 339.11 337.02 339.11 337.02 339.10 337.03 339.10 337.03 339.10 337.03 339.10 337.03 Z" data-drauu_index="11"></path><path fill="#ff595e" d="M 339.11 337.02 Q 339.11 337.02 339.11 337.02 339.10 337.03 339.10 337.03 339.10 337.03 339.10 337.03 Z" data-drauu_index="12"></path><path fill="#ff595e" d="M 338.53 336.44 Q 338.53 336.44 340.09 336.28 341.64 336.12 343.75 336.80 345.86 337.48 349.69 338.74 353.52 339.99 357.72 341.03 361.91 342.07 366.16 342.90 370.42 343.74 374.82 344.35 379.22 344.96 381.60 345.22 383.99 345.48 385.59 345.73 387.19 345.98 389.31 346.07 391.44 346.16 395.01 346.34 398.59 346.51 403.02 346.85 407.45 347.19 412.94 347.33 418.44 347.47 422.36 347.54 426.28 347.62 428.20 348.63 430.11 349.63 430.11 349.64 430.11 349.64 430.11 349.65 430.11 349.65 428.16 350.61 426.22 351.57 422.28 351.52 418.33 351.47 412.74 351.32 407.15 351.18 402.77 350.84 398.39 350.51 394.82 350.33 391.25 350.16 388.91 350.04 386.57 349.93 385.06 349.69 383.56 349.46 381.11 349.19 378.66 348.92 374.16 348.29 369.65 347.66 365.30 346.81 360.94 345.95 356.61 344.87 352.28 343.79 348.40 342.52 344.53 341.26 342.07 340.33 339.61 339.41 339.07 337.94 338.52 336.46 338.53 336.45 Z" data-drauu_index="13"></path>
</svg>